<?xml version="1.0" encoding="UTF-8"?>
<svg xmlns="http://www.w3.org/2000/svg" xmlns:xlink="http://www.w3.org/1999/xlink" viewBox="0 0 1920 1080">
  <defs>
    <style>
      .cls-1 {
        fill: #131313;
      }

      .cls-2 {
        fill: url(#New_Pattern);
      }

      .cls-3 {
        fill: #121212;
      }

      .cls-4 {
        fill: none;
      }
    </style>
    <pattern id="New_Pattern" data-name="New Pattern" x="0" y="0" width="552.52" height="399.92" patternUnits="userSpaceOnUse" viewBox="0 0 552.52 399.92">
      <g>
        <rect class="cls-4" x="0" width="552.52" height="399.92"/>
        <g>
          <path class="cls-1" d="m247.1,310.47c-1.49.39-3.34,1.02-5.32,2.11-1.26.69-2.32,1.42-3.19,2.11-1.54,1.16-3.48,2.88-5.32,5.27-1.47,1.91-2.49,3.75-3.19,5.27-.71,1.29-1.43,2.7-2.13,4.21-.81,1.77-1.48,3.46-2.05,5.04-2.54,2.29-4.63,4.17-7.18,6.45-2,.5-4.28,1.19-6.73,2.19-2.47,1.01-4.6,2.11-6.38,3.16-1.77,1.05-3.55,2.11-5.32,3.16-1.75,1.14-4.29,3.12-6.38,6.32-.99,1.51-1.66,2.97-2.13,4.21-.71,1.17-1.46,2.57-2.13,4.21-.78,1.91-1.28,3.67-1.6,5.16l-4.79,7.48c-1.11.69-2.91,1.62-5.32,2.11-2.74.55-5.03.27-6.38,0h-10.43c-2.04-.22-4.25-.56-6.59-1.05-1.5-.32-2.92-.68-4.26-1.05-.58-.4-1.4-1.07-2.13-2.11-.55-.79-.87-1.54-1.06-2.11-.42-1.03-.88-2.47-1.06-4.21-.13-1.21-.09-2.29,0-3.16.84.15,1.97.45,3.19,1.05.93.46,1.67.97,2.23,1.43l5.22,2.79,3.19,1.05c1.11.13,2.57.2,4.26,0,1.75-.21,3.19-.65,4.26-1.05.99-.54,2.08-1.23,3.19-2.11.55-.43,1.05-.87,1.51-1.29.36-.34,1.01-1.18,1.68-2.92.42-1.1.96-2.89,1.06-5.27v-6.66c-.2-.61-.52-1.34-1.05-2.09-1.38-1.98-3.29-2.82-4.19-3.14-2.09-.7-4.19-1.4-6.28-2.09h-5.23c-.79-1.13-2.12-2.75-4.19-4.19-1.56-1.08-3.05-1.72-4.19-2.09-1.68-.53-4.22-1.12-7.33-1.05-2.19.05-4.06.42-5.52.82l-5,2.57-6.23,4.98c.05.62.06,1.32,0,2.09-.14,1.74-.61,3.17-1.05,4.19-.35.54-1,1.4-2.09,2.09-1.76,1.11-3.52,1.09-4.19,1.05-.97.26-2.02.6-3.14,1.05-1.63.65-3.03,1.39-4.19,2.09-.57.69-1.36,1.74-2.09,3.14-1.53,2.92-1.87,5.52-2.09,7.33-.19,1.53-.31,3.69,0,6.28.7,1.74,1.4,3.49,2.09,5.23.71.83,2.07,2.18,4.19,3.14,1.67.76,3.19.98,4.19,1.05l3.14,3.14,1.05,5.23c.07.71.28,1.9,1.05,3.14,1.38,2.21,3.55,2.95,4.19,3.14.75.38,1.82.81,3.14,1.05,1.75.32,3.23.17,4.19,0,.7.37,2.19,1.05,4.19,1.05.79,0,2.42-.11,4.19-1.05.12,1.14.4,2.6,1.05,4.19.33.8.69,1.5,1.05,2.09.39.57,1.06,1.38,2.09,2.09.78.54,1.53.86,2.09,1.05,1.3.46,3.08.93,5.23,1.05,3.18.18,5.75-.49,7.33-1.05,1.04-.29,2.61-.87,4.19-2.09.92-.71,1.6-1.46,2.09-2.09.69-.88,1.41-1.92,2.09-3.14.41-.73.75-1.43,1.05-2.09,1.05-.4,2.46-.84,4.19-1.05,1.66-.2,3.1-.13,4.19,0,1.23.21,3.04.55,5.23,1.05,2.19.5,3.33.84,4.19,1.05,2.08.5,5.16.83,9.42,0,2.44-.35,4.88-.7,7.33-1.05l6.28-4.19c1.22-.96,2.73-2.32,4.19-4.19,1.51-1.93,2.5-3.78,3.14-5.23l3.14-8.37c.35-2.79.7-5.58,1.05-8.37.35-2.79.7-5.58,1.05-8.37l5.23-4.19,8.71-7.09,6.99-8.03,2.09-7.9,3.11-7.26c2.48-3.66,6.38-9.42,8.86-13.08l.19-.19,15.13-10.91,6.2-3.1h-4.7l-7.69,2.31-12.48,8.24c-2.21,2.01-5.74,5.21-7.95,7.22-.89,1.1-1.77,2.2-2.66,3.3-1.05,1.3-2.12,2.7-3.19,4.21-.76,1.07-1.47,2.13-2.13,3.16-.73,1.39-1.51,3.15-2.13,5.27-.7,2.43-.98,4.61-1.06,6.32-2.13,1.76-4.26,3.51-6.38,5.27s-4.26,3.51-6.38,5.27l-9.57,6.32c-1.29,1.24-2.83,2.98-4.26,5.27-1.74,2.8-2.67,5.43-3.19,7.37-.49,1.89-1.18,4.03-2.13,6.32-1.02,2.44-2.13,4.55-3.19,6.32-1.77,2.11-3.55,4.21-5.32,6.32-.97.97-2.37,2.16-4.26,3.16-3.45,1.84-6.72,2.1-8.51,2.11-6.85.44-13.69.87-20.54,1.31-4.53.48-9.06.97-13.59,1.45-3.75.51-6.52-.02-8.43-.66-1.4-.47-2.51-1.05-9.57-5.27h0l-6.38-8.43v-4.21c-.63-.09-2.58-.45-4.26-2.11-.45-.45-1.79-1.89-2.13-4.21-.38-.76-.82-1.83-1.06-3.16-.32-1.76-.18-3.25,0-4.21.72-.64,1.78-1.44,3.19-2.11,1.21-.57,2.33-.88,3.19-1.05.19.03,1.89.24,3.19-1.05,1.3-1.29,1.09-2.98,1.06-3.16.7-.4,2.15-1.35,3.19-3.16,1.32-2.29,1.16-4.5,1.06-5.27,1.05-.7,2.47-1.49,4.26-2.11,2.56-.89,4.83-1.06,6.38-1.05,2.48.35,4.96.7,7.45,1.05,1.08.52,2.73,1.47,4.26,3.16,1.03,1.14,1.7,2.28,2.13,3.16,1.13-.03,3.13.07,5.32,1.05,1.44.65,2.5,1.47,3.19,2.11.32.25.7.59,1.06,1.05.62.79.92,1.58,1.06,2.11-.04.31-.22,1.28-1.06,2.11-.22.22-.95.89-2.13,1.05-.42.33-1.14.79-2.13,1.05-1.42.38-2.62.15-3.19,0-.54-.15-1.33-.44-2.13-1.05-1.44-1.12-1.96-2.57-2.13-3.16-.19-.59-.73-1.99-2.13-3.16-1.48-1.24-3.06-1.51-3.67-1.58-1.04-.31-2.74-.69-4.84-.53-1.85.14-3.31.64-4.26,1.05-.76.31-2,.92-3.19,2.11-.58.57-1.48,1.61-2.13,3.16-.36.6-.73,1.3-1.06,2.11-.66,1.6-.94,3.07-1.06,4.21-.12.75-.21,1.86,0,3.16.22,1.39.69,2.47,1.06,3.16l3.19,2.11c-.04.65-.04,1.36,0,2.11.15,2.63.83,4.77,1.44,6.26l1.84,2.23c1.06.69,2.45,1.45,4.17,2.05,3.02,1.06,5.71,1.14,7.45,1.05,1.33-.27,2.76-.61,4.26-1.05,1.13-.33,2.2-.69,3.19-1.05,1.37-.62,2.8-1.32,4.26-2.11.73-.39,1.44-.79,2.13-1.19,1.42.75,2.84,1.5,4.26,2.24,1.22.41,2.65.79,4.26,1.05,3.4.55,6.35.34,8.51,0,1.3-.54,2.74-1.22,4.26-2.11,1.2-.7,2.26-1.42,3.19-2.11,1.36-1.18,2.8-2.57,4.26-4.21,2.31-2.61,4.03-5.16,5.32-7.37l3.19-8.43,6.38-8.43c.82-1.29,2.46-3.51,5.32-5.27,2.05-1.26,3.99-1.83,5.32-2.11,1.42-1.05,2.84-2.11,4.26-3.16,1.44-.96,3.54-2.63,5.32-5.27,1.04-1.54,1.7-3.01,2.13-4.21.71-2.11,1.42-4.21,2.13-6.32l5.32-8.43,7.45-8.43Z"/>
          <path class="cls-1" d="m22.7,372.65s-13.68,2.57-14.93-7.71,1.24-9,1.24-9c-1.42-.34-3.28-1.05-4.98-2.57-5.48-4.93-3.84-13.6-3.73-14.14.11-.91.4-2.34,1.24-3.86,1.21-2.19,2.89-3.35,3.73-3.86,1.57-.92,3.65-1.91,6.22-2.57,5.18-1.33,9.6-.62,12.08,0l1.6-5.14c.46-1.11,1.51-3.28,3.73-5.14,1.93-1.62,3.87-2.28,4.98-2.57,1.19-.47,2.88-1.02,4.98-1.29,1.15-.15,2.86-.35,4.98,0,2.63.44,4.73,1.54,6.22,2.57,1.35,1.2,3.36,3.29,4.98,6.43.41.8,2.44,4.71,2.49,10.29.02,2.8.07,8.84-3.73,12.86-.25.26-.53.51-.56.54-2.46,2.22-5.14,3-6.9,3.32-2.02-1.47-4.24-1.14-4.98,0-.62.96-.09,2.33,0,2.57l4.98,2.57h7.46l7.46-2.57c1.14-.96,2.45-2.22,3.73-3.86,1.85-2.35,3.01-4.65,3.73-6.43.41-1.29.83-2.57,1.24-3.86.39-1.29,1.11-3.18,2.49-5.14,1.3-1.84,2.7-3.08,3.73-3.86,1.37-1.24,3.02-2.57,4.98-3.86,2.72-1.79,5.29-3.01,7.46-3.86,5.19-1.72,9.46-2.34,12.44-2.57,3.24-.26,5.99-.15,9.95-1.29,2.72-.78,4.84-1.81,6.22-2.57,1.59-.76,3.26-1.61,4.98-2.57,2.27-1.27,4.34-2.58,6.22-3.86-.19,1.35-.74,3.87-2.49,6.43-2.18,3.18-4.98,4.6-6.22,5.14-5.05,3.13-9.41,4.48-12.44,5.14-7.49,1.63-10.39-.21-17.41,2.57-4.51,1.78-7.73,4.13-8.71,5.14-1.67,1.73-3.34,3.46-5.01,5.18l-1.74,2.89c-1.07,3.31-2.13,6.62-3.2,9.92-.83,2.57-1.66,5.14-2.49,7.71-.98,1.7-2.56,4.07-4.98,6.43-2.23,2.19-4.26,4.17-7.46,5.14-5.52,1.68-10.45-.89-11.19-1.29-.29-.16-.58-.34-.71-.42-2.61-1.6-4.39-3.4-5.51-4.72h-3.73c-.63-.05-3.42-.32-4.98-2.57-1.65-2.38-1.06-5.73,0-7.71,1.03-1.93,2.32-2.18,2.49-3.86.15-1.51-.82-2.01-1.24-3.86-.54-2.33.35-4.36,1.24-6.43.82-1.88,2.01-4.63,4.98-6.43.58-.35,3.95-2.39,7.46-1.29,3.28,1.03,4.56,4.13,4.98,3.86.53-.35-.68-6-4.98-9-4.38-3.06-10.12-2.08-13.68,0-1.5.87-3.99,2.33-4.98,5.14-.79,2.28-.02,3.81-1.24,5.14-1.11,1.22-2.39.65-4.98,1.29-.32.08-5.56,1.44-7.46,5.14-.58,1.13-.71,2.2,0,7.71.91,7.14,1.37,10.7,2.49,12.86.91,1.75,2.96,5,7.46,7.71Z"/>
          <path class="cls-1" d="m530.28,361.54c-2.74-1.93-5.86-3.92-9.36-5.85-2.43-1.34-4.78-2.5-7.02-3.51-1.93-1.16-4.69-2.55-8.19-3.51-3.74-1.03-7.01-1.22-9.36-1.17-2.53.24-5.27.61-8.19,1.17-3.44.66-6.57,1.48-9.36,2.34-7.02,2.73-14.03,5.46-21.05,8.19l-24.56,11.69c-3.73,1.64-8.03,3.27-12.86,4.68-6.49,1.89-12.44,2.94-17.54,3.51h-25.35c-3.7-.53-7.75-1.27-12.07-2.34-4.29-1.06-8.19-2.27-11.69-3.51-2.03-.73-4.47-1.83-7.02-3.51-4.71-3.11-7.66-6.81-9.36-9.36-2.73-.78-5.46-1.56-8.19-2.34-1.64-.44-4.31-1.39-7.02-3.51-3.2-2.51-4.85-5.41-5.62-7.02-.4-1.68-.87-4.62-.23-8.19.72-3.95,2.46-6.75,3.51-8.19,1.95-1.95,3.9-3.9,5.85-5.85.39-1.95.78-3.9,1.17-5.85l9.36-7.02,11.69-2.34,11.69,4.68,2.34,5.85,4.68,1.17c3.51-.39,7.02-.78,10.53-1.17,3.51.78,7.02,1.56,10.53,2.34,1.95,1.56,3.9,3.12,5.85,4.68,1.54,2.84,2.11,5.27,2.34,7.02,0,0,.2,1.51,0,8.19h0c-.47,1.37-1.46,3.65-3.51,5.85-1.7,1.83-3.47,2.9-4.68,3.51-.79.44-4.07,2.15-8.19,1.17-3.21-.76-5.15-2.73-5.85-3.51-.33-.86-.58-2.6-.58-4.82,0-2.49.58-5.12,2.92-5.7,4.68-1.17,10.53-1.17,10.53-1.17l-1.17-3.51h-11.69l-10.53,4.68s-2.34,9.36,0,11.69c2.34,2.34,15.2,10.53,15.2,10.53l21.05,4.68c4.17.68,9.84,1.08,16.37,0,2.89-.48,5.47-1.17,7.71-1.92,10.29-3.65,20.59-7.29,30.88-10.94l23.09-8.77c4.51-1.79,11.26-3.67,19.01-2.92,5.48.52,10.26,2.24,10.53,2.34,1.11.41,3.49,1.45,8.19,3.51h0c2.06.72,5.12,2.09,8.19,4.68,4,3.37,6.04,7.17,7.02,9.36Z"/>
          <path class="cls-1" d="m518.1,399.47c-1.49.39-3.34,1.02-5.32,2.11-1.26.69-2.32,1.42-3.19,2.11-1.54,1.16-3.48,2.88-5.32,5.27-1.47,1.91-2.49,3.75-3.19,5.27-.71,1.29-1.43,2.7-2.13,4.21-.81,1.77-1.48,3.46-2.05,5.04l-7.18,6.45c-2,.5-4.28,1.19-6.73,2.19-2.47,1.01-4.6,2.11-6.38,3.16-1.77,1.05-3.55,2.11-5.32,3.16-1.75,1.14-4.29,3.12-6.38,6.32-.99,1.51-1.66,2.97-2.13,4.21-.71,1.17-1.46,2.57-2.13,4.21-.78,1.91-1.28,3.67-1.6,5.16l-4.79,7.48c-1.11.69-2.91,1.62-5.32,2.11-2.74.55-5.03.27-6.38,0h-10.43c-2.04-.22-4.25-.56-6.59-1.05-1.5-.32-2.92-.68-4.26-1.05-.58-.4-1.4-1.07-2.13-2.11-.55-.79-.87-1.54-1.06-2.11-.42-1.03-.88-2.47-1.06-4.21-.13-1.21-.09-2.29,0-3.16.84.15,1.97.45,3.19,1.05.93.46,1.67.97,2.23,1.43l5.22,2.79,3.19,1.05c1.11.13,2.57.2,4.26,0,1.75-.21,3.19-.65,4.26-1.05.99-.54,2.08-1.23,3.19-2.11.55-.43,1.05-.87,1.51-1.29.36-.34,1.01-1.18,1.68-2.92.42-1.1.96-2.89,1.06-5.27v-6.66c-.2-.61-.52-1.34-1.05-2.09-1.38-1.98-3.29-2.82-4.19-3.14-2.09-.7-4.19-1.4-6.28-2.09h-5.23c-.79-1.13-2.12-2.75-4.19-4.19-1.56-1.08-3.05-1.72-4.19-2.09-1.68-.53-4.22-1.12-7.33-1.05-2.19.05-4.06.42-5.52.82l-5,2.57-6.23,4.98c.05.62.06,1.32,0,2.09-.14,1.74-.61,3.17-1.05,4.19-.35.54-1,1.4-2.09,2.09-1.76,1.11-3.52,1.09-4.19,1.05-.97.26-2.02.6-3.14,1.05-1.63.65-3.03,1.39-4.19,2.09-.57.69-1.36,1.74-2.09,3.14-1.53,2.92-1.87,5.52-2.09,7.33-.19,1.53-.31,3.69,0,6.28.7,1.74,1.4,3.49,2.09,5.23.71.83,2.07,2.18,4.19,3.14,1.67.76,3.19.98,4.19,1.05l3.14,3.14,1.05,5.23c.07.71.28,1.9,1.05,3.14,1.38,2.21,3.55,2.95,4.19,3.14.75.38,1.82.81,3.14,1.05,1.75.32,3.23.17,4.19,0,.7.37,2.19,1.05,4.19,1.05.79,0,2.42-.11,4.19-1.05.12,1.14.4,2.6,1.05,4.19.33.8.69,1.5,1.05,2.09.39.57,1.06,1.38,2.09,2.09.78.54,1.53.86,2.09,1.05,1.3.46,3.08.93,5.23,1.05,3.18.18,5.75-.49,7.33-1.05,1.04-.29,2.61-.87,4.19-2.09.92-.71,1.6-1.46,2.09-2.09.69-.88,1.41-1.92,2.09-3.14.41-.73.75-1.43,1.05-2.09,1.05-.4,2.46-.84,4.19-1.05,1.66-.2,3.1-.13,4.19,0,1.23.21,3.04.55,5.23,1.05,2.19.5,3.33.84,4.19,1.05,2.08.5,5.16.83,9.42,0,2.44-.35,4.88-.7,7.33-1.05l6.28-4.19c1.22-.96,2.73-2.32,4.19-4.19,1.51-1.93,2.5-3.78,3.14-5.23l3.14-8.37c.35-2.79.7-5.58,1.05-8.37.35-2.79.7-5.58,1.05-8.37l5.23-4.19,8.71-7.09,6.99-8.03,2.09-7.9,3.11-7.26c2.48-3.66,6.38-9.42,8.86-13.08l.19-.19c4.22-3.04,10.92-7.87,15.13-10.91l6.2-3.1h-4.7l-7.69,2.31-12.48,8.24c-2.21,2.01-5.74,5.21-7.95,7.22-.89,1.1-1.77,2.2-2.66,3.3-1.05,1.3-2.12,2.7-3.19,4.21-.76,1.07-1.47,2.13-2.13,3.16-.73,1.39-1.51,3.15-2.13,5.27-.7,2.43-.98,4.61-1.06,6.32-2.13,1.76-4.26,3.51-6.38,5.27s-4.26,3.51-6.38,5.27l-9.57,6.32c-1.29,1.24-2.83,2.98-4.26,5.27-1.74,2.8-2.67,5.43-3.19,7.37-.49,1.89-1.18,4.03-2.13,6.32-1.02,2.44-2.13,4.55-3.19,6.32-1.77,2.11-3.55,4.21-5.32,6.32-.97.97-2.37,2.16-4.26,3.16-3.45,1.84-6.72,2.1-8.51,2.11-6.85.44-13.69.87-20.54,1.31-4.53.48-9.06.97-13.59,1.45-3.75.51-6.52-.02-8.43-.66-1.4-.47-2.51-1.05-9.57-5.27h0l-6.38-8.43v-4.21c-.63-.09-2.58-.45-4.26-2.11-.45-.45-1.79-1.89-2.13-4.21-.38-.76-.82-1.83-1.06-3.16-.32-1.76-.18-3.25,0-4.21.72-.64,1.78-1.44,3.19-2.11,1.21-.57,2.33-.88,3.19-1.05.19.03,1.89.24,3.19-1.05,1.3-1.29,1.09-2.98,1.06-3.16.7-.4,2.15-1.35,3.19-3.16,1.32-2.29,1.16-4.5,1.06-5.27,1.05-.7,2.47-1.49,4.26-2.11,2.56-.89,4.83-1.06,6.38-1.05,2.48.35,4.96.7,7.45,1.05,1.08.52,2.73,1.47,4.26,3.16,1.03,1.14,1.7,2.28,2.13,3.16,1.13-.03,3.13.07,5.32,1.05,1.44.65,2.5,1.47,3.19,2.11.32.25.7.59,1.06,1.05.62.79.92,1.58,1.06,2.11-.04.31-.22,1.28-1.06,2.11-.22.22-.95.89-2.13,1.05-.42.33-1.14.79-2.13,1.05-1.42.38-2.62.15-3.19,0-.54-.15-1.33-.44-2.13-1.05-1.44-1.12-1.96-2.57-2.13-3.16-.19-.59-.73-1.99-2.13-3.16-1.48-1.24-3.06-1.51-3.67-1.58-1.04-.31-2.74-.69-4.84-.53-1.85.14-3.31.64-4.26,1.05-.76.31-2,.92-3.19,2.11-.58.57-1.48,1.61-2.13,3.16-.36.6-.73,1.3-1.06,2.11-.66,1.6-.94,3.07-1.06,4.21-.12.75-.21,1.86,0,3.16.22,1.39.69,2.47,1.06,3.16l3.19,2.11c-.04.65-.04,1.36,0,2.11.15,2.63.83,4.77,1.44,6.26l1.84,2.23c1.06.69,2.45,1.45,4.17,2.05,3.02,1.06,5.71,1.14,7.45,1.05,1.33-.27,2.76-.61,4.26-1.05,1.13-.33,2.2-.69,3.19-1.05,1.37-.62,2.8-1.32,4.26-2.11.73-.39,1.44-.79,2.13-1.19,1.42.75,2.84,1.5,4.26,2.24,1.22.41,2.65.79,4.26,1.05,3.4.55,6.35.34,8.51,0,1.3-.54,2.74-1.22,4.26-2.11,1.2-.7,2.26-1.42,3.19-2.11,1.36-1.18,2.8-2.57,4.26-4.21,2.31-2.61,4.03-5.16,5.32-7.37l3.19-8.43,6.38-8.43c.82-1.29,2.46-3.51,5.32-5.27,2.05-1.26,3.99-1.83,5.32-2.11,1.42-1.05,2.84-2.11,4.26-3.16,1.44-.96,3.54-2.63,5.32-5.27,1.04-1.54,1.7-3.01,2.13-4.21.71-2.11,1.42-4.21,2.13-6.32l5.32-8.43,7.45-8.43Z"/>
        </g>
        <g>
          <path class="cls-1" d="m247.1,110.51c-1.49.39-3.34,1.02-5.32,2.11-1.26.69-2.32,1.42-3.19,2.11-1.54,1.16-3.48,2.88-5.32,5.27-1.47,1.91-2.49,3.75-3.19,5.27-.71,1.29-1.43,2.7-2.13,4.21-.81,1.77-1.48,3.46-2.05,5.04-2.54,2.29-4.63,4.17-7.18,6.45-2,.5-4.28,1.19-6.73,2.19-2.47,1.01-4.6,2.11-6.38,3.16-1.77,1.05-3.55,2.11-5.32,3.16-1.75,1.14-4.29,3.12-6.38,6.32-.99,1.51-1.66,2.97-2.13,4.21-.71,1.17-1.46,2.57-2.13,4.21-.78,1.91-1.28,3.67-1.6,5.16l-4.79,7.48c-1.11.69-2.91,1.62-5.32,2.11-2.74.55-5.03.27-6.38,0h-10.43c-2.04-.22-4.25-.56-6.59-1.05-1.5-.32-2.92-.68-4.26-1.05-.58-.4-1.4-1.07-2.13-2.11-.55-.79-.87-1.54-1.06-2.11-.42-1.03-.88-2.47-1.06-4.21-.13-1.21-.09-2.29,0-3.16.84.15,1.97.45,3.19,1.05.93.46,1.67.97,2.23,1.43l5.22,2.79,3.19,1.05c1.11.13,2.57.2,4.26,0,1.75-.21,3.19-.65,4.26-1.05.99-.54,2.08-1.23,3.19-2.11.55-.43,1.05-.87,1.51-1.29.36-.34,1.01-1.18,1.68-2.92.42-1.1.96-2.89,1.06-5.27v-6.66c-.2-.61-.52-1.34-1.05-2.09-1.38-1.98-3.29-2.82-4.19-3.14-2.09-.7-4.19-1.4-6.28-2.09h-5.23c-.79-1.13-2.12-2.75-4.19-4.19-1.56-1.08-3.05-1.72-4.19-2.09-1.68-.53-4.22-1.12-7.33-1.05-2.19.05-4.06.42-5.52.82l-5,2.57-6.23,4.98c.05.62.06,1.32,0,2.09-.14,1.74-.61,3.17-1.05,4.19-.35.54-1,1.4-2.09,2.09-1.76,1.11-3.52,1.09-4.19,1.05-.97.26-2.02.6-3.14,1.05-1.63.65-3.03,1.39-4.19,2.09-.57.69-1.36,1.74-2.09,3.14-1.53,2.92-1.87,5.52-2.09,7.33-.19,1.53-.31,3.69,0,6.28.7,1.74,1.4,3.49,2.09,5.23.71.83,2.07,2.18,4.19,3.14,1.67.76,3.19.98,4.19,1.05l3.14,3.14,1.05,5.23c.07.71.28,1.9,1.05,3.14,1.38,2.21,3.55,2.95,4.19,3.14.75.38,1.82.81,3.14,1.05,1.75.32,3.23.17,4.19,0,.7.37,2.19,1.05,4.19,1.05.79,0,2.42-.11,4.19-1.05.12,1.14.4,2.6,1.05,4.19.33.8.69,1.5,1.05,2.09.39.57,1.06,1.38,2.09,2.09.78.54,1.53.86,2.09,1.05,1.3.46,3.08.93,5.23,1.05,3.18.18,5.75-.49,7.33-1.05,1.04-.29,2.61-.87,4.19-2.09.92-.71,1.6-1.46,2.09-2.09.69-.88,1.41-1.92,2.09-3.14.41-.73.75-1.43,1.05-2.09,1.05-.4,2.46-.84,4.19-1.05,1.66-.2,3.1-.13,4.19,0,1.23.21,3.04.55,5.23,1.05,2.19.5,3.33.84,4.19,1.05,2.08.5,5.16.83,9.42,0,2.44-.35,4.88-.7,7.33-1.05l6.28-4.19c1.22-.96,2.73-2.32,4.19-4.19,1.51-1.93,2.5-3.78,3.14-5.23l3.14-8.37c.35-2.79.7-5.58,1.05-8.37.35-2.79.7-5.58,1.05-8.37l5.23-4.19,8.71-7.09,6.99-8.03,2.09-7.9,3.11-7.26c2.48-3.66,6.38-9.42,8.86-13.08l.19-.19,15.13-10.91,6.2-3.1h-4.7l-7.69,2.31-12.48,8.24c-2.21,2.01-5.74,5.21-7.95,7.22-.89,1.1-1.77,2.2-2.66,3.3-1.05,1.3-2.12,2.7-3.19,4.21-.76,1.07-1.47,2.13-2.13,3.16-.73,1.39-1.51,3.15-2.13,5.27-.7,2.43-.98,4.61-1.06,6.32-2.13,1.76-4.26,3.51-6.38,5.27s-4.26,3.51-6.38,5.27l-9.57,6.32c-1.29,1.24-2.83,2.98-4.26,5.27-1.74,2.8-2.67,5.43-3.19,7.37-.49,1.89-1.18,4.03-2.13,6.32-1.02,2.44-2.13,4.55-3.19,6.32-1.77,2.11-3.55,4.21-5.32,6.32-.97.97-2.37,2.16-4.26,3.16-3.45,1.84-6.72,2.1-8.51,2.11-6.85.44-13.69.87-20.54,1.31-4.53.48-9.06.97-13.59,1.45-3.75.51-6.52-.02-8.43-.66-1.4-.47-2.51-1.05-9.57-5.27h0l-6.38-8.43v-4.21c-.63-.09-2.58-.45-4.26-2.11-.45-.45-1.79-1.89-2.13-4.21-.38-.76-.82-1.83-1.06-3.16-.32-1.76-.18-3.25,0-4.21.72-.64,1.78-1.44,3.19-2.11,1.21-.57,2.33-.88,3.19-1.05.19.03,1.89.24,3.19-1.05,1.3-1.29,1.09-2.98,1.06-3.16.7-.4,2.15-1.35,3.19-3.16,1.32-2.29,1.16-4.5,1.06-5.27,1.05-.7,2.47-1.49,4.26-2.11,2.56-.89,4.83-1.06,6.38-1.05,2.48.35,4.96.7,7.45,1.05,1.08.52,2.73,1.47,4.26,3.16,1.03,1.14,1.7,2.28,2.13,3.16,1.13-.03,3.13.07,5.32,1.05,1.44.65,2.5,1.47,3.19,2.11.32.25.7.59,1.06,1.05.62.79.92,1.58,1.06,2.11-.04.31-.22,1.28-1.06,2.11-.22.22-.95.89-2.13,1.05-.42.33-1.14.79-2.13,1.05-1.42.38-2.62.15-3.19,0-.54-.15-1.33-.44-2.13-1.05-1.44-1.12-1.96-2.57-2.13-3.16-.19-.59-.73-1.99-2.13-3.16-1.48-1.24-3.06-1.51-3.67-1.58-1.04-.31-2.74-.69-4.84-.53-1.85.14-3.31.64-4.26,1.05-.76.31-2,.92-3.19,2.11-.58.57-1.48,1.61-2.13,3.16-.36.6-.73,1.3-1.06,2.11-.66,1.6-.94,3.07-1.06,4.21-.12.75-.21,1.86,0,3.16.22,1.39.69,2.47,1.06,3.16l3.19,2.11c-.04.65-.04,1.36,0,2.11.15,2.63.83,4.77,1.44,6.26l1.84,2.23c1.06.69,2.45,1.45,4.17,2.05,3.02,1.06,5.71,1.14,7.45,1.05,1.33-.27,2.76-.61,4.26-1.05,1.13-.33,2.2-.69,3.19-1.05,1.37-.62,2.8-1.32,4.26-2.11.73-.39,1.44-.79,2.13-1.19,1.42.75,2.84,1.5,4.26,2.24,1.22.41,2.65.79,4.26,1.05,3.4.55,6.35.34,8.51,0,1.3-.54,2.74-1.22,4.26-2.11,1.2-.7,2.26-1.42,3.19-2.11,1.36-1.18,2.8-2.57,4.26-4.21,2.31-2.61,4.03-5.16,5.32-7.37l3.19-8.43,6.38-8.43c.82-1.29,2.46-3.51,5.32-5.27,2.05-1.26,3.99-1.83,5.32-2.11,1.42-1.05,2.84-2.11,4.26-3.16,1.44-.96,3.54-2.63,5.32-5.27,1.04-1.54,1.7-3.01,2.13-4.21.71-2.11,1.42-4.21,2.13-6.32l5.32-8.43,7.45-8.43Z"/>
          <path class="cls-1" d="m22.7,172.69s-13.68,2.57-14.93-7.71,1.24-9,1.24-9c-1.42-.34-3.28-1.05-4.98-2.57-5.48-4.93-3.84-13.6-3.73-14.14.11-.91.4-2.34,1.24-3.86,1.21-2.19,2.89-3.35,3.73-3.86,1.57-.92,3.65-1.91,6.22-2.57,5.18-1.33,9.6-.62,12.08,0l1.6-5.14c.46-1.11,1.51-3.28,3.73-5.14,1.93-1.62,3.87-2.28,4.98-2.57,1.19-.47,2.88-1.02,4.98-1.29,1.15-.15,2.86-.35,4.98,0,2.63.44,4.73,1.54,6.22,2.57,1.35,1.2,3.36,3.29,4.98,6.43.41.8,2.44,4.71,2.49,10.29.02,2.8.07,8.84-3.73,12.86-.25.26-.53.51-.56.54-2.46,2.22-5.14,3-6.9,3.32-2.02-1.47-4.24-1.14-4.98,0-.62.96-.09,2.33,0,2.57l4.98,2.57h7.46l7.46-2.57c1.14-.96,2.45-2.22,3.73-3.86,1.85-2.35,3.01-4.65,3.73-6.43.41-1.29.83-2.57,1.24-3.86.39-1.29,1.11-3.18,2.49-5.14,1.3-1.84,2.7-3.08,3.73-3.86,1.37-1.24,3.02-2.57,4.98-3.86,2.72-1.79,5.29-3.01,7.46-3.86,5.19-1.72,9.46-2.34,12.44-2.57,3.24-.26,5.99-.15,9.95-1.29,2.72-.78,4.84-1.81,6.22-2.57,1.59-.76,3.26-1.61,4.98-2.57,2.27-1.27,4.34-2.58,6.22-3.86-.19,1.35-.74,3.87-2.49,6.43-2.18,3.18-4.98,4.6-6.22,5.14-5.05,3.13-9.41,4.48-12.44,5.14-7.49,1.63-10.39-.21-17.41,2.57-4.51,1.78-7.73,4.13-8.71,5.14-1.67,1.73-3.34,3.46-5.01,5.18l-1.74,2.89c-1.07,3.31-2.13,6.62-3.2,9.92-.83,2.57-1.66,5.14-2.49,7.71-.98,1.7-2.56,4.07-4.98,6.43-2.23,2.19-4.26,4.17-7.46,5.14-5.52,1.68-10.45-.89-11.19-1.29-.29-.16-.58-.34-.71-.42-2.61-1.6-4.39-3.4-5.51-4.72h-3.73c-.63-.05-3.42-.32-4.98-2.57-1.65-2.38-1.06-5.73,0-7.71,1.03-1.93,2.32-2.18,2.49-3.86.15-1.51-.82-2.01-1.24-3.86-.54-2.33.35-4.36,1.24-6.43.82-1.88,2.01-4.63,4.98-6.43.58-.35,3.95-2.39,7.46-1.29,3.28,1.03,4.56,4.13,4.98,3.86.53-.35-.68-6-4.98-9-4.38-3.06-10.12-2.08-13.68,0-1.5.87-3.99,2.33-4.98,5.14-.79,2.28-.02,3.81-1.24,5.14-1.11,1.22-2.39.65-4.98,1.29-.32.08-5.56,1.44-7.46,5.14-.58,1.13-.71,2.2,0,7.71.91,7.14,1.37,10.7,2.49,12.86.91,1.75,2.96,5,7.46,7.71Z"/>
          <path class="cls-1" d="m214.41,280.44c-2.74-1.93-5.86-3.92-9.36-5.85-2.43-1.34-4.78-2.5-7.02-3.51-1.93-1.16-4.69-2.55-8.19-3.51-3.74-1.03-7.01-1.22-9.36-1.17-2.53.24-5.27.61-8.19,1.17-3.44.66-6.57,1.48-9.36,2.34-7.02,2.73-14.03,5.46-21.05,8.19l-24.56,11.69c-3.73,1.64-8.03,3.27-12.86,4.68-6.49,1.89-12.44,2.94-17.54,3.51h-25.35c-3.7-.53-7.75-1.27-12.07-2.34-4.29-1.06-8.19-2.27-11.69-3.51-2.03-.73-4.47-1.83-7.02-3.51-4.71-3.11-7.66-6.81-9.36-9.36-2.73-.78-5.46-1.56-8.19-2.34-1.64-.44-4.31-1.39-7.02-3.51-3.2-2.51-4.85-5.41-5.62-7.02-.4-1.68-.87-4.62-.23-8.19.72-3.95,2.46-6.75,3.51-8.19,1.95-1.95,3.9-3.9,5.85-5.85.39-1.95.78-3.9,1.17-5.85l9.36-7.02,11.69-2.34,11.69,4.68,2.34,5.85,4.68,1.17c3.51-.39,7.02-.78,10.53-1.17,3.51.78,7.02,1.56,10.53,2.34,1.95,1.56,3.9,3.12,5.85,4.68,1.54,2.84,2.11,5.27,2.34,7.02,0,0,.2,1.51,0,8.19h0c-.47,1.37-1.46,3.65-3.51,5.85-1.7,1.83-3.47,2.9-4.68,3.51-.79.44-4.07,2.15-8.19,1.17-3.21-.76-5.15-2.73-5.85-3.51-.33-.86-.58-2.6-.58-4.82,0-2.49.58-5.12,2.92-5.7,4.68-1.17,10.53-1.17,10.53-1.17l-1.17-3.51h-11.69l-10.53,4.68s-2.34,9.36,0,11.69c2.34,2.34,15.2,10.53,15.2,10.53l21.05,4.68c4.17.68,9.84,1.08,16.37,0,2.89-.48,5.47-1.17,7.71-1.92,10.29-3.65,20.59-7.29,30.88-10.94l23.09-8.77c4.51-1.79,11.26-3.67,19.01-2.92,5.48.52,10.26,2.24,10.53,2.34,1.11.41,3.49,1.45,8.19,3.51h0c2.06.72,5.12,2.09,8.19,4.68,4,3.37,6.04,7.17,7.02,9.36Z"/>
          <path class="cls-1" d="m261.55,278.69s-13.68,2.57-14.93-7.71,1.24-9,1.24-9c-1.42-.34-3.28-1.05-4.98-2.57-5.48-4.93-3.84-13.6-3.73-14.14.11-.91.4-2.34,1.24-3.86,1.21-2.19,2.89-3.35,3.73-3.86,1.57-.92,3.65-1.91,6.22-2.57,5.18-1.33,9.6-.62,12.08,0l1.6-5.14c.46-1.11,1.51-3.28,3.73-5.14,1.93-1.62,3.87-2.28,4.98-2.57,1.19-.47,2.88-1.02,4.98-1.29,1.15-.15,2.86-.35,4.98,0,2.63.44,4.73,1.54,6.22,2.57,1.35,1.2,3.36,3.29,4.98,6.43.41.8,2.44,4.71,2.49,10.29.02,2.8.07,8.84-3.73,12.86-.25.26-.53.51-.56.54-2.46,2.22-5.14,3-6.9,3.32-2.02-1.47-4.24-1.14-4.98,0-.62.96-.09,2.33,0,2.57l4.98,2.57h7.46l7.46-2.57c1.14-.96,2.45-2.22,3.73-3.86,1.85-2.35,3.01-4.65,3.73-6.43.41-1.29.83-2.57,1.24-3.86.39-1.29,1.11-3.18,2.49-5.14,1.3-1.84,2.7-3.08,3.73-3.86,1.37-1.24,3.02-2.57,4.98-3.86,2.72-1.79,5.29-3.01,7.46-3.86,5.19-1.72,9.46-2.34,12.44-2.57,3.24-.26,5.99-.15,9.95-1.29,2.72-.78,4.84-1.81,6.22-2.57,1.59-.76,3.26-1.61,4.98-2.57,2.27-1.27,4.34-2.58,6.22-3.86-.19,1.35-.74,3.87-2.49,6.43-2.18,3.18-4.98,4.6-6.22,5.14-5.05,3.13-9.41,4.48-12.44,5.14-7.49,1.63-10.39-.21-17.41,2.57-4.51,1.78-7.73,4.13-8.71,5.14-1.67,1.73-3.34,3.46-5.01,5.18l-1.74,2.89c-1.07,3.31-2.13,6.62-3.2,9.92-.83,2.57-1.66,5.14-2.49,7.71-.98,1.7-2.56,4.07-4.98,6.43-2.23,2.19-4.26,4.17-7.46,5.14-5.52,1.68-10.45-.89-11.19-1.29-.29-.16-.58-.34-.71-.42-2.61-1.6-4.39-3.4-5.51-4.72h-3.73c-.63-.05-3.42-.32-4.98-2.57-1.65-2.38-1.06-5.73,0-7.71,1.03-1.93,2.32-2.18,2.49-3.86.15-1.51-.82-2.01-1.24-3.86-.54-2.33.35-4.36,1.24-6.43.82-1.88,2.01-4.63,4.98-6.43.58-.35,3.95-2.39,7.46-1.29,3.28,1.03,4.56,4.13,4.98,3.86.53-.35-.68-6-4.98-9-4.38-3.06-10.12-2.08-13.68,0-1.5.87-3.99,2.33-4.98,5.14-.79,2.28-.02,3.81-1.24,5.14-1.11,1.22-2.39.65-4.98,1.29-.32.08-5.56,1.44-7.46,5.14-.58,1.13-.71,2.2,0,7.71.91,7.14,1.37,10.7,2.49,12.86.91,1.75,2.96,5,7.46,7.71Z"/>
          <path class="cls-1" d="m530.28,161.58c-2.74-1.93-5.86-3.92-9.36-5.85-2.43-1.34-4.78-2.5-7.02-3.51-1.93-1.16-4.69-2.55-8.19-3.51-3.74-1.03-7.01-1.22-9.36-1.17-2.53.24-5.27.61-8.19,1.17-3.44.66-6.57,1.48-9.36,2.34-7.02,2.73-14.03,5.46-21.05,8.19l-24.56,11.69c-3.73,1.64-8.03,3.27-12.86,4.68-6.49,1.89-12.44,2.94-17.54,3.51h-25.35c-3.7-.53-7.75-1.27-12.07-2.34-4.29-1.06-8.19-2.27-11.69-3.51-2.03-.73-4.47-1.83-7.02-3.51-4.71-3.11-7.66-6.81-9.36-9.36-2.73-.78-5.46-1.56-8.19-2.34-1.64-.44-4.31-1.39-7.02-3.51-3.2-2.51-4.85-5.41-5.62-7.02-.4-1.68-.87-4.62-.23-8.19.72-3.95,2.46-6.75,3.51-8.19,1.95-1.95,3.9-3.9,5.85-5.85.39-1.95.78-3.9,1.17-5.85l9.36-7.02,11.69-2.34,11.69,4.68,2.34,5.85,4.68,1.17c3.51-.39,7.02-.78,10.53-1.17,3.51.78,7.02,1.56,10.53,2.34,1.95,1.56,3.9,3.12,5.85,4.68,1.54,2.84,2.11,5.27,2.34,7.02,0,0,.2,1.51,0,8.19h0c-.47,1.37-1.46,3.65-3.51,5.85-1.7,1.83-3.47,2.9-4.68,3.51-.79.44-4.07,2.15-8.19,1.17-3.21-.76-5.15-2.73-5.85-3.51-.33-.86-.58-2.6-.58-4.82,0-2.49.58-5.12,2.92-5.7,4.68-1.17,10.53-1.17,10.53-1.17l-1.17-3.51h-11.69l-10.53,4.68s-2.34,9.36,0,11.69c2.34,2.34,15.2,10.53,15.2,10.53l21.05,4.68c4.17.68,9.84,1.08,16.37,0,2.89-.48,5.47-1.17,7.71-1.92,10.29-3.65,20.59-7.29,30.88-10.94l23.09-8.77c4.51-1.79,11.26-3.67,19.01-2.92,5.48.52,10.26,2.24,10.53,2.34,1.11.41,3.49,1.45,8.19,3.51h0c2.06.72,5.12,2.09,8.19,4.68,4,3.37,6.04,7.17,7.02,9.36Z"/>
          <path class="cls-1" d="m518.1,199.51c-1.49.39-3.34,1.02-5.32,2.11-1.26.69-2.32,1.42-3.19,2.11-1.54,1.16-3.48,2.88-5.32,5.27-1.47,1.91-2.49,3.75-3.19,5.27-.71,1.29-1.43,2.7-2.13,4.21-.81,1.77-1.48,3.46-2.05,5.04l-7.18,6.45c-2,.5-4.28,1.19-6.73,2.19-2.47,1.01-4.6,2.11-6.38,3.16-1.77,1.05-3.55,2.11-5.32,3.16-1.75,1.14-4.29,3.12-6.38,6.32-.99,1.51-1.66,2.97-2.13,4.21-.71,1.17-1.46,2.57-2.13,4.21-.78,1.91-1.28,3.67-1.6,5.16l-4.79,7.48c-1.11.69-2.91,1.62-5.32,2.11-2.74.55-5.03.27-6.38,0h-10.43c-2.04-.22-4.25-.56-6.59-1.05-1.5-.32-2.92-.68-4.26-1.05-.58-.4-1.4-1.07-2.13-2.11-.55-.79-.87-1.54-1.06-2.11-.42-1.03-.88-2.47-1.06-4.21-.13-1.21-.09-2.29,0-3.16.84.15,1.97.45,3.19,1.05.93.46,1.67.97,2.23,1.43l5.22,2.79,3.19,1.05c1.11.13,2.57.2,4.26,0,1.75-.21,3.19-.65,4.26-1.05.99-.54,2.08-1.23,3.19-2.11.55-.43,1.05-.87,1.51-1.29.36-.34,1.01-1.18,1.68-2.92.42-1.1.96-2.89,1.06-5.27v-6.66c-.2-.61-.52-1.34-1.05-2.09-1.38-1.98-3.29-2.82-4.19-3.14-2.09-.7-4.19-1.4-6.28-2.09h-5.23c-.79-1.13-2.12-2.75-4.19-4.19-1.56-1.08-3.05-1.72-4.19-2.09-1.68-.53-4.22-1.12-7.33-1.05-2.19.05-4.06.42-5.52.82l-5,2.57-6.23,4.98c.05.62.06,1.32,0,2.09-.14,1.74-.61,3.17-1.05,4.19-.35.54-1,1.4-2.09,2.09-1.76,1.11-3.52,1.09-4.19,1.05-.97.26-2.02.6-3.14,1.05-1.63.65-3.03,1.39-4.19,2.09-.57.69-1.36,1.74-2.09,3.14-1.53,2.92-1.87,5.52-2.09,7.33-.19,1.53-.31,3.69,0,6.28.7,1.74,1.4,3.49,2.09,5.23.71.83,2.07,2.18,4.19,3.14,1.67.76,3.19.98,4.19,1.05l3.14,3.14,1.05,5.23c.07.71.28,1.9,1.05,3.14,1.38,2.21,3.55,2.95,4.19,3.14.75.38,1.82.81,3.14,1.05,1.75.32,3.23.17,4.19,0,.7.37,2.19,1.05,4.19,1.05.79,0,2.42-.11,4.19-1.05.12,1.14.4,2.6,1.05,4.19.33.8.69,1.5,1.05,2.09.39.57,1.06,1.38,2.09,2.09.78.54,1.53.86,2.09,1.05,1.3.46,3.08.93,5.23,1.05,3.18.18,5.75-.49,7.33-1.05,1.04-.29,2.61-.87,4.19-2.09.92-.71,1.6-1.46,2.09-2.09.69-.88,1.41-1.92,2.09-3.14.41-.73.75-1.43,1.05-2.09,1.05-.4,2.46-.84,4.19-1.05,1.66-.2,3.1-.13,4.19,0,1.23.21,3.04.55,5.23,1.05,2.19.5,3.33.84,4.19,1.05,2.08.5,5.16.83,9.42,0,2.44-.35,4.88-.7,7.33-1.05l6.28-4.19c1.22-.96,2.73-2.32,4.19-4.19,1.51-1.93,2.5-3.78,3.14-5.23l3.14-8.37c.35-2.79.7-5.58,1.05-8.37.35-2.79.7-5.58,1.05-8.37l5.23-4.19,8.71-7.09,6.99-8.03,2.09-7.9,3.11-7.26c2.48-3.66,6.38-9.42,8.86-13.08l.19-.19c4.22-3.04,10.92-7.87,15.13-10.91l6.2-3.1h-4.7l-7.69,2.31-12.48,8.24c-2.21,2.01-5.74,5.21-7.95,7.22-.89,1.1-1.77,2.2-2.66,3.3-1.05,1.3-2.12,2.7-3.19,4.21-.76,1.07-1.47,2.13-2.13,3.16-.73,1.39-1.51,3.15-2.13,5.27-.7,2.43-.98,4.61-1.06,6.32-2.13,1.76-4.26,3.51-6.38,5.27s-4.26,3.51-6.38,5.27l-9.57,6.32c-1.29,1.24-2.83,2.98-4.26,5.27-1.74,2.8-2.67,5.43-3.19,7.37-.49,1.89-1.18,4.03-2.13,6.32-1.02,2.44-2.13,4.55-3.19,6.32-1.77,2.11-3.55,4.21-5.32,6.32-.97.97-2.37,2.16-4.26,3.16-3.45,1.84-6.72,2.1-8.51,2.11-6.85.44-13.69.87-20.54,1.31-4.53.48-9.06.97-13.59,1.45-3.75.51-6.52-.02-8.43-.66-1.4-.47-2.51-1.05-9.57-5.27h0l-6.38-8.43v-4.21c-.63-.09-2.58-.45-4.26-2.11-.45-.45-1.79-1.89-2.13-4.21-.38-.76-.82-1.83-1.06-3.16-.32-1.76-.18-3.25,0-4.21.72-.64,1.78-1.44,3.19-2.11,1.21-.57,2.33-.88,3.19-1.05.19.03,1.89.24,3.19-1.05,1.3-1.29,1.09-2.98,1.06-3.16.7-.4,2.15-1.35,3.19-3.16,1.32-2.29,1.16-4.5,1.06-5.27,1.05-.7,2.47-1.49,4.26-2.11,2.56-.89,4.83-1.06,6.38-1.05,2.48.35,4.96.7,7.45,1.05,1.08.52,2.73,1.47,4.26,3.16,1.03,1.14,1.7,2.28,2.13,3.16,1.13-.03,3.13.07,5.32,1.05,1.44.65,2.5,1.47,3.19,2.11.32.25.7.59,1.06,1.05.62.79.92,1.58,1.06,2.11-.04.31-.22,1.28-1.06,2.11-.22.22-.95.89-2.13,1.05-.42.33-1.14.79-2.13,1.05-1.42.38-2.62.15-3.19,0-.54-.15-1.33-.44-2.13-1.05-1.44-1.12-1.96-2.57-2.13-3.16-.19-.59-.73-1.99-2.13-3.16-1.48-1.24-3.06-1.51-3.67-1.58-1.04-.31-2.74-.69-4.84-.53-1.85.14-3.31.64-4.26,1.05-.76.31-2,.92-3.19,2.11-.58.57-1.48,1.61-2.13,3.16-.36.6-.73,1.3-1.06,2.11-.66,1.6-.94,3.07-1.06,4.21-.12.75-.21,1.86,0,3.16.22,1.39.69,2.47,1.06,3.16l3.19,2.11c-.04.65-.04,1.36,0,2.11.15,2.63.83,4.77,1.44,6.26l1.84,2.23c1.06.69,2.45,1.45,4.17,2.05,3.02,1.06,5.71,1.14,7.45,1.05,1.33-.27,2.76-.61,4.26-1.05,1.13-.33,2.2-.69,3.19-1.05,1.37-.62,2.8-1.32,4.26-2.11.73-.39,1.44-.79,2.13-1.19,1.42.75,2.84,1.5,4.26,2.24,1.22.41,2.65.79,4.26,1.05,3.4.55,6.35.34,8.51,0,1.3-.54,2.74-1.22,4.26-2.11,1.2-.7,2.26-1.42,3.19-2.11,1.36-1.18,2.8-2.57,4.26-4.21,2.31-2.61,4.03-5.16,5.32-7.37l3.19-8.43,6.38-8.43c.82-1.29,2.46-3.51,5.32-5.27,2.05-1.26,3.99-1.83,5.32-2.11,1.42-1.05,2.84-2.11,4.26-3.16,1.44-.96,3.54-2.63,5.32-5.27,1.04-1.54,1.7-3.01,2.13-4.21.71-2.11,1.42-4.21,2.13-6.32l5.32-8.43,7.45-8.43Z"/>
        </g>
        <g>
          <path class="cls-1" d="m247.1-89.45c-1.49.39-3.34,1.02-5.32,2.11-1.26.69-2.32,1.42-3.19,2.11-1.54,1.16-3.48,2.88-5.32,5.27-1.47,1.91-2.49,3.75-3.19,5.27-.71,1.29-1.43,2.7-2.13,4.21-.81,1.77-1.48,3.46-2.05,5.04-2.54,2.29-4.63,4.17-7.18,6.45-2,.5-4.28,1.19-6.73,2.19-2.47,1.01-4.6,2.11-6.38,3.16-1.77,1.05-3.55,2.11-5.32,3.16-1.75,1.14-4.29,3.12-6.38,6.32-.99,1.51-1.66,2.97-2.13,4.21-.71,1.17-1.46,2.57-2.13,4.21-.78,1.91-1.28,3.67-1.6,5.16l-4.79,7.48c-1.11.69-2.91,1.62-5.32,2.11-2.74.55-5.03.27-6.38,0h-10.43c-2.04-.22-4.25-.56-6.59-1.05-1.5-.32-2.92-.68-4.26-1.05-.58-.4-1.4-1.07-2.13-2.11-.55-.79-.87-1.54-1.06-2.11-.42-1.03-.88-2.47-1.06-4.21-.13-1.21-.09-2.29,0-3.16.84.15,1.97.45,3.19,1.05.93.46,1.67.97,2.23,1.43l5.22,2.79,3.19,1.05c1.11.13,2.57.2,4.26,0,1.75-.21,3.19-.65,4.26-1.05.99-.54,2.08-1.23,3.19-2.11.55-.43,1.05-.87,1.51-1.29.36-.34,1.01-1.18,1.68-2.92.42-1.1.96-2.89,1.06-5.27v-6.66c-.2-.61-.52-1.34-1.05-2.09-1.38-1.98-3.29-2.82-4.19-3.14-2.09-.7-4.19-1.4-6.28-2.09h-5.23c-.79-1.13-2.12-2.75-4.19-4.19-1.56-1.08-3.05-1.72-4.19-2.09-1.68-.53-4.22-1.12-7.33-1.05-2.19.05-4.06.42-5.52.82l-5,2.57-6.23,4.98c.05.62.06,1.32,0,2.09-.14,1.74-.61,3.17-1.05,4.19-.35.54-1,1.4-2.09,2.09-1.76,1.11-3.52,1.09-4.19,1.05-.97.26-2.02.6-3.14,1.05-1.63.65-3.03,1.39-4.19,2.09-.57.69-1.36,1.74-2.09,3.14-1.53,2.92-1.87,5.52-2.09,7.33-.19,1.53-.31,3.69,0,6.28.7,1.74,1.4,3.49,2.09,5.23.71.83,2.07,2.18,4.19,3.14,1.67.76,3.19.98,4.19,1.05l3.14,3.14,1.05,5.23c.07.71.28,1.9,1.05,3.14,1.38,2.21,3.55,2.95,4.19,3.14.75.38,1.82.81,3.14,1.05,1.75.32,3.23.17,4.19,0,.7.37,2.19,1.05,4.19,1.05.79,0,2.42-.11,4.19-1.05.12,1.14.4,2.6,1.05,4.19.33.8.69,1.5,1.05,2.09.39.57,1.06,1.38,2.09,2.09.78.54,1.53.86,2.09,1.05,1.3.46,3.08.93,5.23,1.05,3.18.18,5.75-.49,7.33-1.05,1.04-.29,2.61-.87,4.19-2.09.92-.71,1.6-1.46,2.09-2.09.69-.88,1.41-1.92,2.09-3.14.41-.73.75-1.43,1.05-2.09,1.05-.4,2.46-.84,4.19-1.05,1.66-.2,3.1-.13,4.19,0,1.23.21,3.04.55,5.23,1.05,2.19.5,3.33.84,4.19,1.05,2.08.5,5.16.83,9.42,0,2.44-.35,4.88-.7,7.33-1.05l6.28-4.19c1.22-.96,2.73-2.32,4.19-4.19,1.51-1.93,2.5-3.78,3.14-5.23l3.14-8.37c.35-2.79.7-5.58,1.05-8.37.35-2.79.7-5.58,1.05-8.37l5.23-4.19,8.71-7.09,6.99-8.03,2.09-7.9,3.11-7.26c2.48-3.66,6.38-9.42,8.86-13.08l.19-.19,15.13-10.91,6.2-3.1h-4.7l-7.69,2.31-12.48,8.24c-2.21,2.01-5.74,5.21-7.95,7.22-.89,1.1-1.77,2.2-2.66,3.3-1.05,1.3-2.12,2.7-3.19,4.21-.76,1.07-1.47,2.13-2.13,3.16-.73,1.39-1.51,3.15-2.13,5.27-.7,2.43-.98,4.61-1.06,6.32-2.13,1.76-4.26,3.51-6.38,5.27s-4.26,3.51-6.38,5.27l-9.57,6.32c-1.29,1.24-2.83,2.98-4.26,5.27-1.74,2.8-2.67,5.43-3.19,7.37-.49,1.89-1.18,4.03-2.13,6.32-1.02,2.44-2.13,4.55-3.19,6.32-1.77,2.11-3.55,4.21-5.32,6.32-.97.97-2.37,2.16-4.26,3.16-3.45,1.84-6.72,2.1-8.51,2.11-6.85.44-13.69.87-20.54,1.31-4.53.48-9.06.97-13.59,1.45-3.75.51-6.52-.02-8.43-.66-1.4-.47-2.51-1.05-9.57-5.27h0l-6.38-8.43v-4.21c-.63-.09-2.58-.45-4.26-2.11-.45-.45-1.79-1.89-2.13-4.21-.38-.76-.82-1.83-1.06-3.16-.32-1.76-.18-3.25,0-4.21.72-.64,1.78-1.44,3.19-2.11,1.21-.57,2.33-.88,3.19-1.05.19.03,1.89.24,3.19-1.05,1.3-1.29,1.09-2.98,1.06-3.16.7-.4,2.15-1.35,3.19-3.16,1.32-2.29,1.16-4.5,1.06-5.27,1.05-.7,2.47-1.49,4.26-2.11,2.56-.89,4.83-1.06,6.38-1.05,2.48.35,4.96.7,7.45,1.05,1.08.52,2.73,1.47,4.26,3.16,1.03,1.14,1.7,2.28,2.13,3.16,1.13-.03,3.13.07,5.32,1.05,1.44.65,2.5,1.47,3.19,2.11.32.25.7.59,1.06,1.05.62.79.92,1.58,1.06,2.11-.04.31-.22,1.28-1.06,2.11-.22.22-.95.89-2.13,1.05-.42.33-1.14.79-2.13,1.05-1.42.38-2.62.15-3.19,0-.54-.15-1.33-.44-2.13-1.05-1.44-1.12-1.96-2.57-2.13-3.16-.19-.59-.73-1.99-2.13-3.16-1.48-1.24-3.06-1.51-3.67-1.58-1.04-.31-2.74-.69-4.84-.53-1.85.14-3.31.64-4.26,1.05-.76.31-2,.92-3.19,2.11-.58.57-1.48,1.61-2.13,3.16-.36.6-.73,1.3-1.06,2.11-.66,1.6-.94,3.07-1.06,4.21-.12.75-.21,1.86,0,3.16.22,1.39.69,2.47,1.06,3.16l3.19,2.11c-.04.65-.04,1.36,0,2.11.15,2.63.83,4.77,1.44,6.26l1.84,2.23c1.06.69,2.45,1.45,4.17,2.05,3.02,1.06,5.71,1.14,7.45,1.05,1.33-.27,2.76-.61,4.26-1.05,1.13-.33,2.2-.69,3.19-1.05,1.37-.62,2.8-1.32,4.26-2.11.73-.39,1.44-.79,2.13-1.19,1.42.75,2.84,1.5,4.26,2.24,1.22.41,2.65.79,4.26,1.05,3.4.55,6.35.34,8.51,0,1.3-.54,2.74-1.22,4.26-2.11,1.2-.7,2.26-1.42,3.19-2.11,1.36-1.18,2.8-2.57,4.26-4.21,2.31-2.61,4.03-5.16,5.32-7.37l3.19-8.43,6.38-8.43c.82-1.29,2.46-3.51,5.32-5.27,2.05-1.26,3.99-1.83,5.32-2.11,1.42-1.05,2.84-2.11,4.26-3.16,1.44-.96,3.54-2.63,5.32-5.27,1.04-1.54,1.7-3.01,2.13-4.21.71-2.11,1.42-4.21,2.13-6.32l5.32-8.43,7.45-8.43Z"/>
          <path class="cls-1" d="m214.41,80.48c-2.74-1.93-5.86-3.92-9.36-5.85-2.43-1.34-4.78-2.5-7.02-3.51-1.93-1.16-4.69-2.55-8.19-3.51-3.74-1.03-7.01-1.22-9.36-1.17-2.53.24-5.27.61-8.19,1.17-3.44.66-6.57,1.48-9.36,2.34-7.02,2.73-14.03,5.46-21.05,8.19l-24.56,11.69c-3.73,1.64-8.03,3.27-12.86,4.68-6.49,1.89-12.44,2.94-17.54,3.51h-25.35c-3.7-.53-7.75-1.27-12.07-2.34-4.29-1.06-8.19-2.27-11.69-3.51-2.03-.73-4.47-1.83-7.02-3.51-4.71-3.11-7.66-6.81-9.36-9.36-2.73-.78-5.46-1.56-8.19-2.34-1.64-.44-4.31-1.39-7.02-3.51-3.2-2.51-4.85-5.41-5.62-7.02-.4-1.68-.87-4.62-.23-8.19.72-3.95,2.46-6.75,3.51-8.19,1.95-1.95,3.9-3.9,5.85-5.85.39-1.95.78-3.9,1.17-5.85l9.36-7.02,11.69-2.34,11.69,4.68,2.34,5.85,4.68,1.17c3.51-.39,7.02-.78,10.53-1.17,3.51.78,7.02,1.56,10.53,2.34,1.95,1.56,3.9,3.12,5.85,4.68,1.54,2.84,2.11,5.27,2.34,7.02,0,0,.2,1.51,0,8.19h0c-.47,1.37-1.46,3.65-3.51,5.85-1.7,1.83-3.47,2.9-4.68,3.51-.79.44-4.07,2.15-8.19,1.17-3.21-.76-5.15-2.73-5.85-3.51-.33-.86-.58-2.6-.58-4.82,0-2.49.58-5.12,2.92-5.7,4.68-1.17,10.53-1.17,10.53-1.17l-1.17-3.51h-11.69l-10.53,4.68s-2.34,9.36,0,11.69c2.34,2.34,15.2,10.53,15.2,10.53l21.05,4.68c4.17.68,9.84,1.08,16.37,0,2.89-.48,5.47-1.17,7.71-1.92,10.29-3.65,20.59-7.29,30.88-10.94l23.09-8.77c4.51-1.79,11.26-3.67,19.01-2.92,5.48.52,10.26,2.24,10.53,2.34,1.11.41,3.49,1.45,8.19,3.51h0c2.06.72,5.12,2.09,8.19,4.68,4,3.37,6.04,7.17,7.02,9.36Z"/>
          <path class="cls-1" d="m261.55,78.73s-13.68,2.57-14.93-7.71,1.24-9,1.24-9c-1.42-.34-3.28-1.05-4.98-2.57-5.48-4.93-3.84-13.6-3.73-14.14.11-.91.4-2.34,1.24-3.86,1.21-2.19,2.89-3.35,3.73-3.86,1.57-.92,3.65-1.91,6.22-2.57,5.18-1.33,9.6-.62,12.08,0l1.6-5.14c.46-1.11,1.51-3.28,3.73-5.14,1.93-1.62,3.87-2.28,4.98-2.57,1.19-.47,2.88-1.02,4.98-1.29,1.15-.15,2.86-.35,4.98,0,2.63.44,4.73,1.54,6.22,2.57,1.35,1.2,3.36,3.29,4.98,6.43.41.8,2.44,4.71,2.49,10.29.02,2.8.07,8.84-3.73,12.86-.25.26-.53.51-.56.54-2.46,2.22-5.14,3-6.9,3.32-2.02-1.47-4.24-1.14-4.98,0-.62.96-.09,2.33,0,2.57l4.98,2.57h7.46l7.46-2.57c1.14-.96,2.45-2.22,3.73-3.86,1.85-2.35,3.01-4.65,3.73-6.43.41-1.29.83-2.57,1.24-3.86.39-1.29,1.11-3.18,2.49-5.14,1.3-1.84,2.7-3.08,3.73-3.86,1.37-1.24,3.02-2.57,4.98-3.86,2.72-1.79,5.29-3.01,7.46-3.86,5.19-1.72,9.46-2.34,12.44-2.57,3.24-.26,5.99-.15,9.95-1.29,2.72-.78,4.84-1.81,6.22-2.57,1.59-.76,3.26-1.61,4.98-2.57,2.27-1.27,4.34-2.58,6.22-3.86-.19,1.35-.74,3.87-2.49,6.43-2.18,3.18-4.98,4.6-6.22,5.14-5.05,3.13-9.41,4.48-12.44,5.14-7.49,1.63-10.39-.21-17.41,2.57-4.51,1.78-7.73,4.13-8.71,5.14-1.67,1.73-3.34,3.46-5.01,5.18l-1.74,2.89c-1.07,3.31-2.13,6.62-3.2,9.92-.83,2.57-1.66,5.14-2.49,7.71-.98,1.7-2.56,4.07-4.98,6.43-2.23,2.19-4.26,4.17-7.46,5.14-5.52,1.68-10.45-.89-11.19-1.29-.29-.16-.58-.34-.71-.42-2.61-1.6-4.39-3.4-5.51-4.72h-3.73c-.63-.05-3.42-.32-4.98-2.57-1.65-2.38-1.06-5.73,0-7.71,1.03-1.93,2.32-2.18,2.49-3.86.15-1.51-.82-2.01-1.24-3.86-.54-2.33.35-4.36,1.24-6.43.82-1.88,2.01-4.63,4.98-6.43.58-.35,3.95-2.39,7.46-1.29,3.28,1.03,4.56,4.13,4.98,3.86.53-.35-.68-6-4.98-9-4.38-3.06-10.12-2.08-13.68,0-1.5.87-3.99,2.33-4.98,5.14-.79,2.28-.02,3.81-1.24,5.14-1.11,1.22-2.39.65-4.98,1.29-.32.08-5.56,1.44-7.46,5.14-.58,1.13-.71,2.2,0,7.71.91,7.14,1.37,10.7,2.49,12.86.91,1.75,2.96,5,7.46,7.71Z"/>
          <path class="cls-1" d="m518.1-.45c-1.49.39-3.34,1.02-5.32,2.11-1.26.69-2.32,1.42-3.19,2.11-1.54,1.16-3.48,2.88-5.32,5.27-1.47,1.91-2.49,3.75-3.19,5.27-.71,1.29-1.43,2.7-2.13,4.21-.81,1.77-1.48,3.46-2.05,5.04l-7.18,6.45c-2,.5-4.28,1.19-6.73,2.19-2.47,1.01-4.6,2.11-6.38,3.16-1.77,1.05-3.55,2.11-5.32,3.16-1.75,1.14-4.29,3.12-6.38,6.32-.99,1.51-1.66,2.97-2.13,4.21-.71,1.17-1.46,2.57-2.13,4.21-.78,1.91-1.28,3.67-1.6,5.16l-4.79,7.48c-1.11.69-2.91,1.62-5.32,2.11-2.74.55-5.03.27-6.38,0h-10.43c-2.04-.22-4.25-.56-6.59-1.05-1.5-.32-2.92-.68-4.26-1.05-.58-.4-1.4-1.07-2.13-2.11-.55-.79-.87-1.54-1.06-2.11-.42-1.03-.88-2.47-1.06-4.21-.13-1.21-.09-2.29,0-3.16.84.15,1.97.45,3.19,1.05.93.46,1.67.97,2.23,1.43l5.22,2.79,3.19,1.05c1.11.13,2.57.2,4.26,0,1.75-.21,3.19-.65,4.26-1.05.99-.54,2.08-1.23,3.19-2.11.55-.43,1.05-.87,1.51-1.29.36-.34,1.01-1.18,1.68-2.92.42-1.1.96-2.89,1.06-5.27v-6.66c-.2-.61-.52-1.34-1.05-2.09-1.38-1.98-3.29-2.82-4.19-3.14-2.09-.7-4.19-1.4-6.28-2.09h-5.23c-.79-1.13-2.12-2.75-4.19-4.19-1.56-1.08-3.05-1.72-4.19-2.09-1.68-.53-4.22-1.12-7.33-1.05-2.19.05-4.06.42-5.52.82l-5,2.57-6.23,4.98c.05.62.06,1.32,0,2.09-.14,1.74-.61,3.17-1.05,4.19-.35.54-1,1.4-2.09,2.09-1.76,1.11-3.52,1.09-4.19,1.05-.97.26-2.02.6-3.14,1.05-1.63.65-3.03,1.39-4.19,2.09-.57.69-1.36,1.74-2.09,3.14-1.53,2.92-1.87,5.52-2.09,7.33-.19,1.53-.31,3.69,0,6.28.7,1.74,1.4,3.49,2.09,5.23.71.83,2.07,2.18,4.19,3.14,1.67.76,3.19.98,4.19,1.05l3.14,3.14,1.05,5.23c.07.71.28,1.9,1.05,3.14,1.38,2.21,3.55,2.95,4.19,3.14.75.38,1.82.81,3.14,1.05,1.75.32,3.23.17,4.19,0,.7.37,2.19,1.05,4.19,1.05.79,0,2.42-.11,4.19-1.05.12,1.14.4,2.6,1.05,4.19.33.8.69,1.5,1.05,2.09.39.57,1.06,1.38,2.09,2.09.78.54,1.53.86,2.09,1.05,1.3.46,3.08.93,5.23,1.05,3.18.18,5.75-.49,7.33-1.05,1.04-.29,2.61-.87,4.19-2.09.92-.71,1.6-1.46,2.09-2.09.69-.88,1.41-1.92,2.09-3.14.41-.73.75-1.43,1.05-2.09,1.05-.4,2.46-.84,4.19-1.05,1.66-.2,3.1-.13,4.19,0,1.23.21,3.04.55,5.23,1.05,2.19.5,3.33.84,4.19,1.05,2.08.5,5.16.83,9.42,0,2.44-.35,4.88-.7,7.33-1.05l6.28-4.19c1.22-.96,2.73-2.32,4.19-4.19,1.51-1.93,2.5-3.78,3.14-5.23l3.14-8.37c.35-2.79.7-5.58,1.05-8.37.35-2.79.7-5.58,1.05-8.37l5.23-4.19,8.71-7.09,6.99-8.03,2.09-7.9,3.11-7.26c2.48-3.66,6.38-9.42,8.86-13.08l.19-.19c4.22-3.04,10.92-7.87,15.13-10.91l6.2-3.1h-4.7l-7.69,2.31-12.48,8.24c-2.21,2.01-5.74,5.21-7.95,7.22-.89,1.1-1.77,2.2-2.66,3.3-1.05,1.3-2.12,2.7-3.19,4.21-.76,1.07-1.47,2.13-2.13,3.16-.73,1.39-1.51,3.15-2.13,5.27-.7,2.43-.98,4.61-1.06,6.32-2.13,1.76-4.26,3.51-6.38,5.27s-4.26,3.51-6.38,5.27l-9.57,6.32c-1.29,1.24-2.83,2.98-4.26,5.27-1.74,2.8-2.67,5.43-3.19,7.37-.49,1.89-1.18,4.03-2.13,6.32-1.02,2.44-2.13,4.55-3.19,6.32-1.77,2.11-3.55,4.21-5.32,6.32-.97.97-2.37,2.16-4.26,3.16-3.45,1.84-6.72,2.1-8.51,2.11-6.85.44-13.69.87-20.54,1.31-4.53.48-9.06.97-13.59,1.45-3.75.51-6.52-.02-8.43-.66-1.4-.47-2.51-1.05-9.57-5.27h0l-6.38-8.43v-4.21c-.63-.09-2.58-.45-4.26-2.11-.45-.45-1.79-1.89-2.13-4.21-.38-.76-.82-1.83-1.06-3.16-.32-1.76-.18-3.25,0-4.21.72-.64,1.78-1.44,3.19-2.11,1.21-.57,2.33-.88,3.19-1.05.19.03,1.89.24,3.19-1.05,1.3-1.29,1.09-2.98,1.06-3.16.7-.4,2.15-1.35,3.19-3.16,1.32-2.29,1.16-4.5,1.06-5.27,1.05-.7,2.47-1.49,4.26-2.11,2.56-.89,4.83-1.06,6.38-1.05,2.48.35,4.96.7,7.45,1.05,1.08.52,2.73,1.47,4.26,3.16,1.03,1.14,1.7,2.28,2.13,3.16,1.13-.03,3.13.07,5.32,1.05,1.44.65,2.5,1.47,3.19,2.11.32.25.7.59,1.06,1.05.62.79.92,1.58,1.06,2.11-.04.31-.22,1.28-1.06,2.11-.22.22-.95.89-2.13,1.05-.42.33-1.14.79-2.13,1.05-1.42.38-2.62.15-3.19,0-.54-.15-1.33-.44-2.13-1.05-1.44-1.12-1.96-2.57-2.13-3.16-.19-.59-.73-1.99-2.13-3.16-1.48-1.24-3.06-1.51-3.67-1.58-1.04-.31-2.74-.69-4.84-.53-1.85.14-3.31.64-4.26,1.05-.76.31-2,.92-3.19,2.11-.58.57-1.48,1.61-2.13,3.16-.36.6-.73,1.3-1.06,2.11-.66,1.6-.94,3.07-1.06,4.21-.12.75-.21,1.86,0,3.16.22,1.39.69,2.47,1.06,3.16l3.19,2.11c-.04.65-.04,1.36,0,2.11.15,2.63.83,4.77,1.44,6.26l1.84,2.23c1.06.69,2.45,1.45,4.17,2.05,3.02,1.06,5.71,1.14,7.45,1.05,1.33-.27,2.76-.61,4.26-1.05,1.13-.33,2.2-.69,3.19-1.05,1.37-.62,2.8-1.32,4.26-2.11.73-.39,1.44-.79,2.13-1.19,1.42.75,2.84,1.5,4.26,2.24,1.22.41,2.65.79,4.26,1.05,3.4.55,6.35.34,8.51,0,1.3-.54,2.74-1.22,4.26-2.11,1.2-.7,2.26-1.42,3.19-2.11,1.36-1.18,2.8-2.57,4.26-4.21,2.31-2.61,4.03-5.16,5.32-7.37l3.19-8.43,6.38-8.43c.82-1.29,2.46-3.51,5.32-5.27,2.05-1.26,3.99-1.83,5.32-2.11,1.42-1.05,2.84-2.11,4.26-3.16,1.44-.96,3.54-2.63,5.32-5.27,1.04-1.54,1.7-3.01,2.13-4.21.71-2.11,1.42-4.21,2.13-6.32l5.32-8.43,7.45-8.43Z"/>
        </g>
      </g>
    </pattern>
  </defs>
  <g id="Layer_1" data-name="Layer 1">
    <rect class="cls-3" width="1920" height="1080"/>
  </g>
  <g id="Layer_3" data-name="Layer 3">
    <rect class="cls-2" width="1920" height="1080"/>
  </g>
</svg>