<?xml version="1.0" encoding="UTF-8"?>
<svg xmlns="http://www.w3.org/2000/svg" xmlns:xlink="http://www.w3.org/1999/xlink" viewBox="0 0 1920 1080">
  <defs>
    <style>
      .cls-1 {
        fill: #121212;
      }

      .cls-2, .cls-3 {
        fill: none;
      }

      .cls-3 {
        stroke: #191919;
        stroke-miterlimit: 10;
        stroke-width: 4px;
      }

      .cls-4 {
        fill: url(#New_Pattern);
        opacity: .2;
      }
    </style>
    <pattern id="New_Pattern" data-name="New Pattern" x="0" y="0" width="208" height="208" patternUnits="userSpaceOnUse" viewBox="0 0 208 208">
      <g>
        <rect class="cls-2" width="208" height="208"/>
        <g>
          <rect class="cls-3" x="106" y="158" width="100" height="100"/>
          <rect class="cls-3" x="119.3" y="171.3" width="73.85" height="73.39"/>
          <rect class="cls-3" x="130.77" y="180.48" width="47.25" height="55.05"/>
          <rect class="cls-3" x="193.16" y="198.83" width="12.84" height="14.68"/>
          <rect class="cls-3" x="106" y="198.83" width="12.84" height="14.68"/>
          <rect class="cls-3" x="106" y="180.48" width="12.84" height="17.89"/>
          <rect class="cls-3" x="193.16" y="180.48" width="12.84" height="17.89"/>
          <rect class="cls-3" x="106" y="158" width="24.77" height="22.48"/>
          <rect class="cls-3" x="178.02" y="158" width="27.98" height="22.48"/>
          <rect class="cls-3" x="169.76" y="171.3" width="23.39" height="21.1"/>
          <rect class="cls-3" x="119.3" y="171.3" width="21.1" height="21.1"/>
          <rect class="cls-3" x="147.74" y="158" width="16.06" height="12.84"/>
        </g>
        <g>
          <rect class="cls-3" x="2" y="158" width="100" height="100"/>
          <rect class="cls-3" x="15.3" y="171.3" width="73.85" height="73.39"/>
          <rect class="cls-3" x="26.77" y="180.48" width="47.25" height="55.05"/>
          <rect class="cls-3" x="89.16" y="198.83" width="12.84" height="14.68"/>
          <rect class="cls-3" x="2" y="198.83" width="12.84" height="14.68"/>
          <rect class="cls-3" x="2" y="180.48" width="12.84" height="17.89"/>
          <rect class="cls-3" x="89.16" y="180.48" width="12.84" height="17.89"/>
          <rect class="cls-3" x="2" y="158" width="24.77" height="22.48"/>
          <rect class="cls-3" x="74.02" y="158" width="27.98" height="22.48"/>
          <rect class="cls-3" x="65.76" y="171.3" width="23.39" height="21.1"/>
          <rect class="cls-3" x="15.3" y="171.3" width="21.1" height="21.1"/>
          <rect class="cls-3" x="43.74" y="158" width="16.06" height="12.84"/>
        </g>
        <g>
          <rect class="cls-3" x="158" y="54" width="100" height="100"/>
          <rect class="cls-3" x="171.3" y="67.3" width="73.85" height="73.39"/>
          <rect class="cls-3" x="182.77" y="76.48" width="47.25" height="55.05"/>
          <rect class="cls-3" x="199.74" y="140.7" width="16.06" height="12.84"/>
          <rect class="cls-3" x="171.3" y="119.6" width="21.1" height="21.1"/>
          <rect class="cls-3" x="158" y="131.52" width="24.77" height="22.48"/>
          <rect class="cls-3" x="158" y="94.83" width="12.84" height="14.68"/>
          <rect class="cls-3" x="158" y="109.5" width="12.84" height="21.56"/>
          <rect class="cls-3" x="158" y="76.48" width="12.84" height="17.89"/>
          <rect class="cls-3" x="158" y="54" width="24.77" height="22.48"/>
          <rect class="cls-3" x="171.3" y="67.3" width="21.1" height="21.1"/>
          <rect class="cls-3" x="199.74" y="54" width="16.06" height="12.84"/>
        </g>
        <g>
          <rect class="cls-3" x="54" y="54" width="100" height="100"/>
          <rect class="cls-3" x="67.3" y="67.3" width="73.85" height="73.39"/>
          <rect class="cls-3" x="78.77" y="76.48" width="47.25" height="55.05"/>
          <rect class="cls-3" x="126.02" y="131.52" width="27.98" height="22.48"/>
          <rect class="cls-3" x="141.16" y="109.5" width="12.84" height="22.94"/>
          <rect class="cls-3" x="95.74" y="140.7" width="16.06" height="12.84"/>
          <rect class="cls-3" x="141.16" y="94.83" width="12.84" height="14.68"/>
          <rect class="cls-3" x="67.3" y="119.6" width="21.1" height="21.1"/>
          <rect class="cls-3" x="54" y="131.52" width="24.77" height="22.48"/>
          <rect class="cls-3" x="117.76" y="119.14" width="23.39" height="21.1"/>
          <rect class="cls-3" x="54" y="94.83" width="12.84" height="14.68"/>
          <rect class="cls-3" x="54" y="109.5" width="12.84" height="21.56"/>
          <rect class="cls-3" x="54" y="76.48" width="12.84" height="17.89"/>
          <rect class="cls-3" x="141.16" y="76.48" width="12.84" height="17.89"/>
          <rect class="cls-3" x="54" y="54" width="24.77" height="22.48"/>
          <rect class="cls-3" x="126.02" y="54" width="27.98" height="22.48"/>
          <rect class="cls-3" x="117.76" y="67.3" width="23.39" height="21.1"/>
          <rect class="cls-3" x="67.3" y="67.3" width="21.1" height="21.1"/>
          <rect class="cls-3" x="95.74" y="54" width="16.06" height="12.84"/>
        </g>
        <g>
          <rect class="cls-3" x="-50" y="54" width="100" height="100"/>
          <rect class="cls-3" x="-36.7" y="67.3" width="73.85" height="73.39"/>
          <rect class="cls-3" x="-25.23" y="76.48" width="47.25" height="55.05"/>
          <rect class="cls-3" x="22.02" y="131.52" width="27.98" height="22.48"/>
          <rect class="cls-3" x="37.16" y="109.5" width="12.84" height="22.94"/>
          <rect class="cls-3" x="-8.26" y="140.7" width="16.06" height="12.84"/>
          <rect class="cls-3" x="37.16" y="94.83" width="12.84" height="14.68"/>
          <rect class="cls-3" x="13.76" y="119.14" width="23.39" height="21.1"/>
          <rect class="cls-3" x="37.16" y="76.48" width="12.84" height="17.89"/>
          <rect class="cls-3" x="22.02" y="54" width="27.98" height="22.48"/>
          <rect class="cls-3" x="13.76" y="67.3" width="23.39" height="21.1"/>
          <rect class="cls-3" x="-8.26" y="54" width="16.06" height="12.84"/>
        </g>
        <g>
          <rect class="cls-3" x="106" y="-50" width="100" height="100"/>
          <rect class="cls-3" x="119.3" y="-36.7" width="73.85" height="73.39"/>
          <rect class="cls-3" x="130.77" y="-27.52" width="47.25" height="55.05"/>
          <rect class="cls-3" x="178.02" y="27.52" width="27.98" height="22.48"/>
          <rect class="cls-3" x="193.16" y="5.5" width="12.84" height="22.94"/>
          <rect class="cls-3" x="147.74" y="36.7" width="16.06" height="12.84"/>
          <rect class="cls-3" x="193.16" y="-9.17" width="12.84" height="14.68"/>
          <rect class="cls-3" x="119.3" y="15.6" width="21.1" height="21.1"/>
          <rect class="cls-3" x="106" y="27.52" width="24.77" height="22.48"/>
          <rect class="cls-3" x="169.76" y="15.14" width="23.39" height="21.1"/>
          <rect class="cls-3" x="106" y="-9.17" width="12.84" height="14.68"/>
          <rect class="cls-3" x="106" y="5.5" width="12.84" height="21.56"/>
        </g>
        <g>
          <rect class="cls-3" x="2" y="-50" width="100" height="100"/>
          <rect class="cls-3" x="15.3" y="-36.7" width="73.85" height="73.39"/>
          <rect class="cls-3" x="26.77" y="-27.52" width="47.25" height="55.05"/>
          <rect class="cls-3" x="74.02" y="27.52" width="27.98" height="22.48"/>
          <rect class="cls-3" x="89.16" y="5.5" width="12.84" height="22.94"/>
          <rect class="cls-3" x="43.74" y="36.7" width="16.06" height="12.84"/>
          <rect class="cls-3" x="89.16" y="-9.17" width="12.84" height="14.68"/>
          <rect class="cls-3" x="15.3" y="15.6" width="21.1" height="21.1"/>
          <rect class="cls-3" x="2" y="27.52" width="24.77" height="22.48"/>
          <rect class="cls-3" x="65.76" y="15.14" width="23.39" height="21.1"/>
          <rect class="cls-3" x="2" y="-9.17" width="12.84" height="14.68"/>
          <rect class="cls-3" x="2" y="5.5" width="12.84" height="21.56"/>
        </g>
      </g>
    </pattern>
  </defs>
  <g id="Layer_3" data-name="Layer 3">
    <rect class="cls-1" width="1920" height="1080"/>
  </g>
  <g id="Layer_1" data-name="Layer 1">
    <rect class="cls-4" y="0" width="1920" height="1080"/>
  </g>
</svg>