<?xml version="1.0" encoding="UTF-8"?>
<svg id="Layer_2" data-name="Layer 2" xmlns="http://www.w3.org/2000/svg" viewBox="0 0 64 64">
  <defs>
    <style>
      .cls-1 {
        fill: #134a9c;
      }

      .cls-2 {
        fill: #cd2d3a;
      }
    </style>
  </defs>
  <path class="cls-2" d="m63.05,32c0,.23,0,.46-.02.68-.17-8.4-7.06-15.17-15.5-15.17s-15.52,6.95-15.52,15.52-6.95,15.52-15.52,15.52c-7.8,0-14.28-5.78-15.34-13.29-.02-.04-.04-.06-.02-.1-.08-.81-.14-1.64-.14-2.48-.02-.23-.02-.46-.02-.68C.95,14.86,14.86.95,32,.95s31.05,13.91,31.05,31.05Z"/>
  <path class="cls-1" d="m63.03,32.68c0,.85-.06,1.68-.14,2.48.02.04,0,.06-.02.1-1.61,15.61-14.82,27.78-30.86,27.78S2.75,50.88,1.14,35.27c1.06,7.51,7.53,13.29,15.34,13.29,8.57,0,15.52-6.95,15.52-15.52s6.95-15.52,15.52-15.52,15.34,6.77,15.5,15.17Z"/>
</svg>