<?xml version="1.0" encoding="UTF-8"?>
<svg id="Layer_7" data-name="Layer 7" xmlns="http://www.w3.org/2000/svg" viewBox="0 0 64 64">
  <defs>
    <style>
      .cls-1 {
        fill: #f2f3f499;
      }
    </style>
  </defs>
  <path class="cls-1" d="m52.16,18.62h-9.4l-9.01-6.58c-.22-.16-.49-.22-.74-.21-.03,0-.05,0-.08,0-.03,0-.05,0-.08,0-.26,0-.52.05-.74.21l-9.01,6.58h-9.11c-2.48,0-4.49,2.01-4.49,4.49v21.69c0,2.48,2.01,4.49,4.49,4.49h14.33v-7.36c0-2.65,2.15-4.79,4.79-4.79s4.79,2.15,4.79,4.79v7.36h14.27c2.48,0,4.49-2.01,4.49-4.49v-21.69c0-2.48-2.01-4.49-4.49-4.49Zm-32.08,22.21c0,.63-.51,1.14-1.14,1.14h-2.27c-.63,0-1.14-.51-1.14-1.14v-4.25c0-.63.51-1.14,1.14-1.14h2.27c.63,0,1.14.51,1.14,1.14v4.25Zm0-9.5c0,.63-.51,1.14-1.14,1.14h-2.27c-.63,0-1.14-.51-1.14-1.14v-4.25c0-.63.51-1.14,1.14-1.14h2.27c.63,0,1.14.51,1.14,1.14v4.25Zm13.01-.06c-3.59,0-6.51-2.91-6.51-6.51s2.91-6.51,6.51-6.51,6.51,2.91,6.51,6.51-2.91,6.51-6.51,6.51Zm17.46,9.56c0,.63-.51,1.14-1.14,1.14h-2.27c-.63,0-1.14-.51-1.14-1.14v-4.25c0-.63.51-1.14,1.14-1.14h2.27c.63,0,1.14.51,1.14,1.14v4.25Zm0-9.5c0,.63-.51,1.14-1.14,1.14h-2.27c-.63,0-1.14-.51-1.14-1.14v-4.25c0-.63.51-1.14,1.14-1.14h2.27c.63,0,1.14.51,1.14,1.14v4.25Z"/>
  <path class="cls-1" d="m35.43,23.24h-1.15v-1.15c0-.62-.5-1.12-1.12-1.12h-.25c-.62,0-1.12.5-1.12,1.12v2.31c0,.37.19.68.46.88.2.27.51.46.88.46h2.31c.62,0,1.12-.5,1.12-1.12v-.25c0-.62-.5-1.12-1.12-1.12Z"/>
</svg>