<?xml version="1.0" encoding="UTF-8"?>
<svg id="Layer_10" data-name="Layer 10" xmlns="http://www.w3.org/2000/svg" viewBox="0 0 64 64">
  <defs>
    <style>
      .cls-1 {
        fill: #f2f3f499;
      }
    </style>
  </defs>
  <path class="cls-1" d="m48.96,21.17h-5.63v-4.13c0-5.73-4.65-10.38-10.38-10.38s-10.38,4.65-10.38,10.38v4.13h-5.63c-2.53,0-4.57,2.05-4.57,4.57v18.64c0,5.05,4.1,9.15,9.15,9.15h22.87c5.05,0,9.15-4.1,9.15-9.15v-18.64c0-2.53-2.05-4.57-4.57-4.57Zm-22.17-2.6c0-4.38,2.76-7.93,6.16-7.93s6.16,3.55,6.16,7.93v2.6h-12.32v-2.6Zm-1.88,11.35c-1.18,0-2.14-.96-2.14-2.14s.96-2.14,2.14-2.14,2.14.96,2.14,2.14-.96,2.14-2.14,2.14Zm16.03,0c-1.18,0-2.14-.96-2.14-2.14s.96-2.14,2.14-2.14,2.14.96,2.14,2.14-.96,2.14-2.14,2.14Z"/>
</svg>