<?xml version="1.0" encoding="UTF-8"?>
<svg id="Layer_11" data-name="Layer 11" xmlns="http://www.w3.org/2000/svg" viewBox="0 0 64 64">
  <defs>
    <style>
      .cls-1 {
        fill: #f2f3f499;
      }
    </style>
  </defs>
  <path class="cls-1" d="m11.39,26.78c0-2.88,2.34-5.22,5.22-5.22h.13c.6-2.98,3.24-5.22,6.4-5.22,1.22,0,2.37.33,3.34.91,1.09-2.09,3.28-3.52,5.8-3.52s4.72,1.44,5.8,3.52c.97-.58,2.11-.91,3.34-.91,3.16,0,5.79,2.24,6.4,5.22h.13c2.88,0,5.22,2.34,5.22,5.22,0,.95-.25,1.84-.7,2.61H12.09c-.45-.77-.7-1.66-.7-2.61Zm0,7.46c0-1.23,1-2.24,2.24-2.24h37.31c1.23,0,2.24,1,2.24,2.24,0,5.75-3.62,10.66-8.71,12.57l-.15,1.18c-.16,1.31-1.27,2.28-2.59,2.28h-18.89c-1.31,0-2.43-.98-2.59-2.28l-.15-1.17c-5.08-1.92-8.7-6.83-8.7-12.58Z"/>
</svg>