<?xml version="1.0" encoding="UTF-8"?>
<svg id="Layer_3" data-name="Layer 3" xmlns="http://www.w3.org/2000/svg" viewBox="0 0 64 64">
  <defs>
    <style>
      .cls-1 {
        fill: #f2f3f499;
      }
    </style>
  </defs>
  <path class="cls-1" d="m48.81,16.9h-1.36c-1.4,0-2.53,1.13-2.53,2.53-.12,2.1-.23,4.2-.35,6.3-.07.21-.21.53-.49.6-.44.13-.95-.48-1.14-.66-.37-.35-14.45-14.23-14.45-14.23-.91-.91-2.38-.91-3.29,0l-.26.26c-.91.91-.91,2.38,0,3.29,3.45,3.45,6.89,6.89,10.34,10.34.25.43.19.95-.14,1.32-.32.37-.86.47-1.3.27-4.1-3.95-8.19-7.9-12.29-11.85-.98-.98-2.56-.98-3.54,0s-.98,2.56,0,3.54l12.17,12.17c.03.09.15.51-.08.95-.21.43-.59.59-.68.62h0l-11.65-10.59c-1.02-.93-2.61-.85-3.54.17s-.85,2.61.17,3.54c3.61,3.63,7.22,7.26,10.83,10.89.02.07.13.51-.14.89-.26.37-.75.53-1.24.39-2.39-2.39-4.77-4.77-7.16-7.16-.88-.88-2.3-.88-3.17,0l-.37.37c-.88.88-.88,2.3,0,3.17,2.2,2.29,4.94,5.14,8.14,8.38,3.73,3.79,5.03,5.04,7.3,6.17,1.56.78,4.36,2.16,8.11,1.92,4.66-.3,7.79-2.89,9.11-4.01,2.3-1.96,3.6-4.11,4.29-5.46.35-.92.68-1.98.94-3.17.41-1.91.72-4.46.27-7.05v-11.35c0-1.4-1.13-2.53-2.53-2.53h0Z"/>
  <path class="cls-1" d="m12.39,38.45c-.02.44,0,1.58.75,2.74.66,1.03,1.54,1.52,1.83,1.66,1.06.53,2.03.51,2.44.48.05.02.81.31.95,1.06.1.49-.1.98-.41,1.27-.57.54-1.5.38-2.63.17-.41-.08-.97-.21-1.62-.49-.39-.18-.87-.44-1.36-.83-.55-.41-.95-.83-1.24-1.19-.24-.33-.49-.74-.74-1.23-.2-.42-.36-.81-.47-1.16-.08-.28-.15-.66-.14-1.13,0-.51.1-.94.2-1.23.18-.57.71-.95,1.28-.94.5.02.95.33,1.16.81h0Z"/>
  <path class="cls-1" d="m38.3,16.61c.02-.44,0-1.58-.75-2.74-.66-1.03-1.54-1.52-1.83-1.66-1.06-.53-2.03-.51-2.44-.48-.05-.02-.81-.31-.95-1.06-.1-.49.1-.98.41-1.27.57-.54,1.5-.38,2.63-.17.41.08.97.21,1.62.49.39.18.87.44,1.36.83.55.41.95.83,1.24,1.19.24.33.49.74.74,1.23.2.42.36.81.47,1.16.08.28.15.66.14,1.13,0,.51-.1.94-.2,1.23-.18.57-.71.95-1.28.94-.5-.02-.95-.33-1.16-.81h0Z"/>
</svg>