<?xml version="1.0" encoding="UTF-8"?>
<svg id="Layer_12" data-name="Layer 12" xmlns="http://www.w3.org/2000/svg" viewBox="0 0 64 64">
  <defs>
    <style>
      .cls-1 {
        fill: #f2f3f499;
      }
    </style>
  </defs>
  <path class="cls-1" d="m22.11,9.44c-1.08,0-1.94.87-1.94,1.94,0,3.15,1.9,4.81,3.17,5.92l.09.08c1.32,1.15,1.93,1.77,1.93,3.07,0,1.08.87,1.94,1.94,1.94s1.94-.87,1.94-1.94c0-3.15-1.9-4.81-3.17-5.92l-.09-.08c-1.32-1.15-1.93-1.77-1.93-3.07,0-1.08-.87-1.94-1.94-1.94Zm-4.54,15.55c-1.43,0-2.59,1.16-2.59,2.59v15.55c0,4.29,3.48,7.78,7.78,7.78h15.55c4.29,0,7.78-3.48,7.78-7.78h1.3c5.01,0,9.07-4.06,9.07-9.07s-4.06-9.07-9.07-9.07h-29.8Zm28.51,5.18h1.3c2.15,0,3.89,1.74,3.89,3.89s-1.74,3.89-3.89,3.89h-1.3v-7.78Zm-12.96-18.79c0-1.08-.87-1.94-1.94-1.94s-1.94.87-1.94,1.94c0,3.15,1.9,4.81,3.17,5.92l.09.08c1.32,1.15,1.93,1.77,1.93,3.07,0,1.08.87,1.94,1.94,1.94s1.94-.87,1.94-1.94c0-3.15-1.9-4.81-3.17-5.92l-.09-.08c-1.32-1.15-1.93-1.77-1.93-3.07Z"/>
</svg>