<?xml version="1.0" encoding="UTF-8"?>
<svg id="Layer_9" data-name="Layer 9" xmlns="http://www.w3.org/2000/svg" viewBox="0 0 64 64">
  <defs>
    <style>
      .cls-1 {
        fill: #fff;
      }
    </style>
  </defs>
  <path class="cls-1" d="m53.07,30.44c-.18-1.58-1.23-2.9-2.66-3.45-.2-.5-.44-.99-.72-1.46l-3.77-6.45c-2.08-3.57-5.91-5.76-10.04-5.76h-7.77c-4.13,0-7.95,2.19-10.04,5.76l-3.77,6.45c-.28.47-.51.96-.72,1.46-1.43.55-2.48,1.87-2.66,3.45h-.05v17.24c0,1.66,1.34,3,3,3h2.13c1.66,0,3-1.34,3-3v-3.97h25.98v3.97c0,1.66,1.34,3,3,3h2.13c1.66,0,3-1.34,3-3v-17.24h-.05Zm-31.04-7.74c1.49-2.56,4.23-4.13,7.19-4.13h5.57c2.96,0,5.7,1.57,7.19,4.13l2.35,4.02h-24.64l2.35-4.02Zm-2.97,14.48c-1.47,0-2.66-1.19-2.66-2.66s1.19-2.66,2.66-2.66,2.66,1.19,2.66,2.66-1.19,2.66-2.66,2.66Zm26.3,0c-1.47,0-2.66-1.19-2.66-2.66s1.19-2.66,2.66-2.66,2.66,1.19,2.66,2.66-1.19,2.66-2.66,2.66Z"/>
</svg>