<?xml version="1.0" encoding="UTF-8"?>
<svg id="Layer_14" data-name="Layer 14" xmlns="http://www.w3.org/2000/svg" viewBox="0 0 64 64">
  <defs>
    <style>
      .cls-1 {
        fill: #fff;
      }
    </style>
  </defs>
  <path class="cls-1" d="m40.55,10.63c.41.17.7.54.78.96l1.61,8.75,8.75,1.61c.43.08.79.37.96.78.17.41.12.87-.13,1.23l-5.05,7.33,5.05,7.32c.25.36.3.83.13,1.23s-.54.7-.96.78l-8.75,1.61-1.61,8.75c-.08.43-.37.79-.78.96-.41.17-.87.12-1.23-.13l-7.32-5.05-7.32,5.05c-.36.25-.83.3-1.23.13s-.7-.54-.78-.96l-1.61-8.75-8.75-1.61c-.43-.08-.79-.37-.96-.78s-.12-.87.13-1.23l5.05-7.32-5.05-7.32c-.25-.36-.3-.83-.13-1.23s.54-.7.96-.78l8.75-1.61,1.61-8.75c.08-.43.37-.79.78-.96s.87-.12,1.23.13l7.32,5.05,7.32-5.05c.36-.25.83-.3,1.23-.13Zm-16.34,20.66c0-4.3,3.48-7.78,7.78-7.78s7.78,3.48,7.78,7.78-3.48,7.78-7.78,7.78-7.78-3.48-7.78-7.78Zm18.16,0c0-5.73-4.65-10.38-10.38-10.38s-10.38,4.65-10.38,10.38,4.65,10.38,10.38,10.38,10.38-4.65,10.38-10.38Z"/>
</svg>