<?xml version="1.0" encoding="UTF-8"?>
<svg id="cloud" xmlns="http://www.w3.org/2000/svg" viewBox="0 0 64 64">
  <defs>
    <style>
      .cls-1 {
        fill: #fff;
      }
    </style>
  </defs>
  <path class="cls-1" d="m9.19,35.48c0,5.67,4.6,10.26,10.26,10.26h26.23c5.04,0,9.12-4.08,9.12-9.12,0-4.41-3.14-8.1-7.3-8.94.29-.76.46-1.6.46-2.47,0-3.78-3.06-6.84-6.84-6.84-1.4,0-2.72.43-3.8,1.15-1.97-3.42-5.66-5.72-9.88-5.72-6.3,0-11.4,5.1-11.4,11.4,0,.19,0,.38.01.58-3.99,1.4-6.86,5.21-6.86,9.69Z"/>
</svg>