<?xml version="1.0" encoding="UTF-8"?>
<svg id="VerbPuzzle" xmlns="http://www.w3.org/2000/svg" viewBox="0 0 64 64">
  <defs>
    <style>
      .cls-1 {
        fill: #f2f3f499;
      }
    </style>
  </defs>
  <path class="cls-1" d="m56.04,29.29c-.2-.35-.68-1.17-1.69-1.76-.37-.21-1.31-.76-2.52-.56-.16.03-.89.16-1.6.75-.63.51-.92,1.11-1.04,1.41-.41.29-.95.57-1.54.5-.83-.11-1.19-.82-1.48-.87v-5.87c0-2.3-1.87-4.17-4.17-4.17h-5.89c-.15-.28-.75-.65-.84-1.4-.08-.6.2-1.14.5-1.54.3-.12.9-.42,1.41-1.04.58-.71.72-1.44.75-1.6.21-1.21-.34-2.15-.56-2.52-.58-1-1.41-1.49-1.76-1.69-.99-.56-1.93-.66-2.59-.67-.66,0-1.6.11-2.59.67-.35.2-1.17.68-1.76,1.69-.21.37-.76,1.31-.56,2.52.03.16.16.89.75,1.6.51.63,1.11.92,1.41,1.04.29.41.57.95.5,1.54-.1.75-.7,1.12-.84,1.4h-10.85c-2.3,0-4.17,1.87-4.17,4.17v5.76c.31-.06.66.76,1.55.88.6.08,1.14-.2,1.54-.5.12-.3.42-.9,1.04-1.41.71-.58,1.44-.72,1.6-.75,1.21-.21,2.15.34,2.52.56,1,.58,1.49,1.41,1.69,1.76.56.99.66,1.93.67,2.59,0,.66-.11,1.6-.67,2.59-.2.35-.68,1.17-1.69,1.76-.37.21-1.31.76-2.52.56-.16-.03-.89-.16-1.6-.75-.63-.51-.92-1.11-1.04-1.41-.41-.29-.95-.57-1.54-.5-.89.12-1.24.94-1.55.88v10.91c0,2.3,1.87,4.17,4.17,4.17h11.1c.23-.26.63-.61.71-1.22.08-.6-.2-1.14-.5-1.54-.3-.12-.9-.42-1.41-1.04-.58-.71-.72-1.44-.75-1.6-.21-1.21.34-2.15.56-2.52.58-1,1.41-1.49,1.76-1.69.99-.56,1.93-.66,2.59-.67.66,0,1.6.11,2.59.67.35.2,1.17.68,1.76,1.69.21.37.76,1.31.56,2.52-.03.16-.16.89-.75,1.6-.51.63-1.11.92-1.41,1.04-.29.41-.57.95-.5,1.54.08.6.48.96.71,1.22h5.91c2.3,0,4.17-1.87,4.17-4.17v-10.82c.29-.05.65-.76,1.48-.87.6-.08,1.14.2,1.54.5.12.3.42.9,1.04,1.41.71.58,1.44.72,1.6.75,1.21.21,2.15-.34,2.52-.56,1-.58,1.49-1.41,1.69-1.76.56-.99.66-1.93.67-2.59,0-.66-.11-1.6-.67-2.59Z"/>
</svg>