<?xml version="1.0" encoding="UTF-8"?>
<svg id="Family" xmlns="http://www.w3.org/2000/svg" viewBox="0 0 64 64">
  <defs>
    <style>
      .cls-1 {
        fill: #fff;
      }
    </style>
  </defs>
  <circle class="cls-1" cx="32.47" cy="23.61" r="4.35"/>
  <path class="cls-1" d="m32.47,30.64c-4.04,0-7.32,3.28-7.32,7.32,0,2.31,1.07,4.36,2.74,5.71v6.83c0,1.58,1.28,2.85,2.85,2.85h3.46c1.58,0,2.85-1.28,2.85-2.85v-6.83c1.67-1.34,2.74-3.4,2.74-5.71,0-4.04-3.28-7.32-7.32-7.32Z"/>
  <path class="cls-1" d="m23.03,37.8c0-3.86,2.31-7.18,5.62-8.67-.14-.08-.26-.18-.39-.27h-.08v-.06c-1.89-1.36-3.13-3.56-3.13-6.07,0-.22.01-.44.03-.66h-6.61c-3.62,0-6.55,2.93-6.55,6.55v5.45c0,2.38,1.56,4.38,3.71,5.07v9.76c0,2.17,1.76,3.93,3.93,3.93h3.34c1.7,0,3.14-1.09,3.68-2.61v-5.03c-2.16-1.74-3.55-4.41-3.55-7.4Z"/>
  <path class="cls-1" d="m53.84,37.67l-3.16-10.45c-.35-1.15-1.27-1.97-2.36-2.25-.71-.74-1.71-1.21-2.82-1.21h-3.34c-.9,0-1.72.32-2.38.83-.49,1.92-1.72,3.54-3.37,4.54,3.31,1.48,5.62,4.8,5.62,8.67,0,2.99-1.39,5.66-3.55,7.4v5.03c.54,1.52,1.98,2.61,3.68,2.61h3.34c2.17,0,3.93-1.76,3.93-3.93v-6.42s.06,0,.09-.02l2.1-.63c1.76-.53,2.76-2.4,2.23-4.16Z"/>
  <circle class="cls-1" cx="43.85" cy="15.43" r="5.67"/>
  <circle class="cls-1" cx="21.31" cy="13.59" r="5.67"/>
</svg>